<svg xmlns="http://www.w3.org/2000/svg" xmlns:xlink="http://www.w3.org/1999/xlink" width="148.593" height="57.022" viewBox="0 0 148.593 57.022">
  <defs>
    <clipPath id="clip-path">
      <path id="Path_2" data-name="Path 2" d="M976.321,529.618a1.549,1.549,0,0,0-1.581,1.582v52.859a1.549,1.549,0,0,0,1.581,1.582h143a1.549,1.549,0,0,0,1.582-1.582V531.2a1.549,1.549,0,0,0-1.582-1.582Z" transform="translate(-974.74 -529.618)" fill="none"/>
    </clipPath>
    <clipPath id="clip-path-2">
      <path id="Intersection_1" data-name="Intersection 1" d="M1.582,56.022A1.548,1.548,0,0,1,0,54.441V1.582A1.549,1.549,0,0,1,1.582,0h54.44V56.022Z" fill="none"/>
    </clipPath>
    <clipPath id="clip-path-3">
      <path id="Path_10" data-name="Path 10" d="M975.346,529.618s-.606,0-.606,1.582v52.859s0,1.582.606,1.582h54.809s.606,0,.606-1.582V531.2s0-1.582-.606-1.582Z" transform="translate(-974.74 -529.618)" fill="none" stroke="#e71a18" stroke-miterlimit="10" stroke-width="1"/>
    </clipPath>
  </defs>
  <g id="Group_7" data-name="Group 7" transform="translate(-974.24 -529.118)">
    <g id="Group_2" data-name="Group 2" transform="translate(974.74 529.618)">
      <g id="Group_1" data-name="Group 1" transform="translate(0 0)" clip-path="url(#clip-path)">
        <path id="Path_1" data-name="Path 1" d="M974.74,529.618V585.64h56.022V529.618Z" transform="translate(-974.74 -529.618)" fill="#fff"/>
      </g>
    </g>
    <g id="Group_4" data-name="Group 4" transform="translate(974.74 529.618)">
      <g id="Group_3" data-name="Group 3" transform="translate(0 0)" clip-path="url(#clip-path-2)">
        <path id="Path_3" data-name="Path 3" d="M991.969,548.308c.212.382.408.7.573,1.042a3.624,3.624,0,0,0,.8,1.062,1.612,1.612,0,0,0,.459.292A1.332,1.332,0,0,1,994.7,552a1.883,1.883,0,0,0,.507,1.161.634.634,0,0,1,.2.6.516.516,0,0,0,.16.377,8.994,8.994,0,0,0,.684.646,1.929,1.929,0,0,1,.809,1.159,1.51,1.51,0,0,0,.42.647.991.991,0,0,1,.267.713c-.009.365,0,.729,0,1.1l-.427.168a.731.731,0,0,0-.518.751c.006.21-.016.421,0,.629a4.253,4.253,0,0,1-.513,2.113.621.621,0,0,1-.232.246.573.573,0,0,0-.326.714,2.131,2.131,0,0,0,.056.309.583.583,0,0,1-.085.555,1.546,1.546,0,0,0-.251.933c.006.341-.013.682.006,1.022a.831.831,0,0,1-.27.707,1.17,1.17,0,0,0-.38.986,2.065,2.065,0,0,1-.095.654.592.592,0,0,0,.13.648,1.262,1.262,0,0,1,.358,1.006,1.444,1.444,0,0,1-.17.551.755.755,0,0,0,.107.939c.109.13.217.262.316.4a.712.712,0,0,1-.039.967c-.3.36-.608.719-.923,1.069-.6.661-1.2,1.313-1.8,1.973-.412.456-.824.913-1.219,1.384a1.547,1.547,0,0,0-.355.94,4.818,4.818,0,0,0,0,.55,1.731,1.731,0,0,1-.876,1.646,6.99,6.99,0,0,1-.972.51,5.49,5.49,0,0,0-2.2,1.668,2.3,2.3,0,0,1-.214.23c-.281.277-.351.291-.772.14a2.268,2.268,0,0,0-.232.373,13.832,13.832,0,0,0-1.112,4.672,2.52,2.52,0,0,1-.672,1.633,4.3,4.3,0,0,1-1.754,1.279,1.363,1.363,0,0,0-.73.782c-.171.366-.367.722-.54,1.087a1.5,1.5,0,0,0-.145.444,8.967,8.967,0,0,1-.611,2.266c-.234.583-.436,1.179-.659,1.767-.122.322-.142.353-.434.358v.264q1.391,0,2.782,0h54.744c.152,0,.3-.012.484-.019a3.223,3.223,0,0,0-.081-.347c-.682-1.873-1.111-3.822-1.705-5.72a34.4,34.4,0,0,0-2.389-5.974,19.608,19.608,0,0,0-3.9-5.144c-.171-.16-.3-.363-.464-.529a1.533,1.533,0,0,0-.393-.3c-.4-.2-.8-.385-1.216-.552a2.3,2.3,0,0,1-1.064-.894,2.408,2.408,0,0,0-.595-.666,9.3,9.3,0,0,0-1.214-.641,2.16,2.16,0,0,1-.983-.813,2.3,2.3,0,0,0-2.025-1.069c-.929-.041-1.861-.009-2.792-.009-.813,0-.813,0-1.317-.653a5.3,5.3,0,0,0-1.9-1.672,2.459,2.459,0,0,1-1.042-.922c-.143-.219-.3-.433-.431-.658a1.57,1.57,0,0,0-1.467-.815,1,1,0,0,1-.692-.231c-.279-.236-.539-.5-.822-.729a.76.76,0,0,1-.315-.954,1,1,0,0,0,.055-.347,4.393,4.393,0,0,0-.313-2.186c-.29-.572-.554-1.157-.831-1.736-.1-.2-.188-.4-.292-.6-.388-.728-.807-1.441-1.165-2.184q-1-2.07-1.934-4.17a3.555,3.555,0,0,0-1.113-1.341c-.6-.47-1.176-.959-1.745-1.462a7.85,7.85,0,0,0-1.837-1.334,2.823,2.823,0,0,1-1.383-1.386,2.744,2.744,0,0,0-1.091-1.258c-.513-.288-1.035-.561-1.553-.84-.219-.117-.443-.227-.658-.352a6.525,6.525,0,0,0-3.308-.983,4.133,4.133,0,0,1-1.43-.6c-.078,0,.03.282-.049.282" transform="translate(-977.593 -541.152)" fill="#e50019"/>
        <path id="Path_4" data-name="Path 4" d="M971.138,557.106l-.08-.091a1.141,1.141,0,0,0-.183-.286l-.109-.124a.573.573,0,0,1-.048-.146,1.393,1.393,0,0,0-.372-.74,2.563,2.563,0,0,0-.7-.8c-.2-.173-.391-.35-.574-.537a.214.214,0,0,1-.007-.109.632.632,0,0,0-.2-.6c-.035-.044-.066-.09-.1-.135a1.376,1.376,0,0,0-.152-.228,1.508,1.508,0,0,1-.255-.8,1.267,1.267,0,0,0-.389-.943,1.413,1.413,0,0,0-.779-.727,1.622,1.622,0,0,1-.459-.291,4,4,0,0,1-.352-.389,3.306,3.306,0,0,1-.182-.3c-.165-.338-.556-1.027-.768-1.409,0,0,0,.009,0,.012a.1.1,0,0,0-.006-.012c-.122.152-.273.245-.352.358a5.537,5.537,0,0,1-.581.838,5.119,5.119,0,0,0-1.058,1.8,13.141,13.141,0,0,1-.823,1.56,1.972,1.972,0,0,0-.263,1.047c0,.734,0,1.468-.032,2.2a1.329,1.329,0,0,0,.088.648,1.505,1.505,0,0,1,.02,1.073.487.487,0,0,1-.192.279.562.562,0,0,0-.284.482c-.016.169-.063.335-.076.5a.278.278,0,0,1-.272.279c-.168.023-.338.033-.507.046-.123.009-.246.014-.419.023.2.4-.01.615-.246.822a.976.976,0,0,0-.389.658.312.312,0,0,1-.353.3,2.585,2.585,0,0,1-.563-.129,2.017,2.017,0,0,1-.314-.162c-.188.336-.367.638-.528.951-.113.218-.234.41-.493.392,0,.565.026,1.1-.008,1.637a7.284,7.284,0,0,1-.2,1.433,5.321,5.321,0,0,0-.205,1.509c.007.315-.015.63.005.943a.884.884,0,0,1-.459.888.971.971,0,0,0-.486.915c-.013.678-.083,1.355-.132,2.033-.012.165-.032.33-.049.491-.091.018-.141.032-.192.038-.383.036-.458.084-.464.472a2.083,2.083,0,0,1-.53,1.238c-.1.135-.227.253-.326.391-.305.424-.576.877-.912,1.275a2.9,2.9,0,0,1-1.482,1.223c-.177.041-.234.191-.239.365,0,.139-.018.278-.026.4a2.6,2.6,0,0,1-1.112.231.7.7,0,0,0-.34.069c-.247.119-.482.263-.725.393a.353.353,0,0,0-.2.422,1.347,1.347,0,0,1,.039.271,1.022,1.022,0,0,1-.753,1.134.823.823,0,0,0-.538.428,2.964,2.964,0,0,1-.771.878,6.258,6.258,0,0,0-.675.6,9.849,9.849,0,0,1-2.553,1.872,1.3,1.3,0,0,0-.551.48,3.244,3.244,0,0,0-.584,1.882.672.672,0,0,1-.417.724,3.091,3.091,0,0,0-1.2,1.046c-.333.517-.642,1.051-1,1.549a1.942,1.942,0,0,0-.36,1.1c-.039.954-.058,1.909-.084,2.864,0,.131,0,.263-.009.393-.027.275-.111.362-.383.413-.175.033-.352.061-.483.084a9.616,9.616,0,0,0-.063.987,1.785,1.785,0,0,1-.577,1.327c-.236.254-.441.537-.713.87.2,0,.3,0,.4,0l.171-.01c-.1.123-.195.248-.308.387.2,0,.3,0,.4,0,.418-.018.835-.056,1.253-.057q6.114-.01,12.228-.011c.2,0,.393,0,.59,0,.4,0,.4,0,.541-.359.223-.588.425-1.184.659-1.767a8.974,8.974,0,0,0,.611-2.266,1.493,1.493,0,0,1,.145-.444c.174-.365.369-.721.54-1.087a1.362,1.362,0,0,1,.73-.782,4.3,4.3,0,0,0,1.754-1.279,2.521,2.521,0,0,0,.672-1.633,13.84,13.84,0,0,1,1.112-4.672,2.253,2.253,0,0,1,.232-.373c.421.151.491.137.772-.14a2.312,2.312,0,0,0,.214-.23,5.49,5.49,0,0,1,2.2-1.668,6.992,6.992,0,0,0,.973-.51,1.731,1.731,0,0,0,.876-1.646,4.8,4.8,0,0,1,0-.55,1.542,1.542,0,0,1,.355-.939c.4-.472.807-.928,1.219-1.385.6-.66,1.2-1.312,1.8-1.973.315-.35.62-.709.923-1.069a.711.711,0,0,0,.039-.967c-.059-.083-.125-.16-.189-.24a.976.976,0,0,0-.074-.137c-.064-.09-.136-.175-.205-.261a.72.72,0,0,1,.045-.7,1.442,1.442,0,0,0,.17-.551,1.262,1.262,0,0,0-.358-1.006.594.594,0,0,1-.044-.06,1.3,1.3,0,0,0-.085-.144.644.644,0,0,1,0-.444,2.064,2.064,0,0,0,.095-.654,1.169,1.169,0,0,1,.38-.985.832.832,0,0,0,.27-.707c-.019-.339,0-.681-.006-1.022a1.546,1.546,0,0,1,.251-.933.583.583,0,0,0,.085-.555,2.13,2.13,0,0,1-.056-.309.573.573,0,0,1,.326-.715.62.62,0,0,0,.232-.246,4.254,4.254,0,0,0,.513-2.113c-.02-.208,0-.419,0-.629a.731.731,0,0,1,.518-.751l.427-.168c0-.374-.007-.739,0-1.1a.99.99,0,0,0-.267-.713Z" transform="translate(-951.249 -541.671)" fill="#fff"/>
        <path id="Path_5" data-name="Path 5" d="M1096.792,649.512h-3.525v-3.525h-3.415v3.525h-3.525v3.414h3.525v3.525h3.415v-3.525h3.525v-3.414Z" transform="translate(-1046.119 -604.055)" fill="#fff"/>
        <path id="Path_6" data-name="Path 6" d="M937.917,597.733h-.655l.239-.294.067-.083H937l.239-.293c.088-.108.17-.212.247-.311.159-.2.309-.393.473-.569a1.59,1.59,0,0,0,.528-1.2,5.1,5.1,0,0,1,.035-.673c.01-.107.021-.218.029-.334l.01-.141.261-.045c.109-.019.234-.039.359-.063.2-.037.219-.06.238-.254.007-.077.007-.155.006-.233,0-.049,0-.1,0-.147l.021-.787c.018-.693.035-1.386.063-2.079a2.124,2.124,0,0,1,.394-1.2c.241-.334.465-.693.681-1.04.1-.167.209-.334.316-.5a3.254,3.254,0,0,1,1.269-1.108.5.5,0,0,0,.323-.545,3.108,3.108,0,0,1,.529-1.844l.075-.14a1.485,1.485,0,0,1,.628-.557,9.717,9.717,0,0,0,2.507-1.838,6.346,6.346,0,0,1,.7-.615,2.762,2.762,0,0,0,.723-.826.994.994,0,0,1,.661-.513c.527-.095.606-.641.606-.958a1.081,1.081,0,0,0-.032-.217.541.541,0,0,1,.29-.635c.091-.049.182-.1.273-.15.151-.085.3-.17.458-.246a.885.885,0,0,1,.378-.088l.052,0a2.251,2.251,0,0,0,.929-.179v0c.007-.086.014-.179.017-.272a.5.5,0,0,1,.378-.537,2.271,2.271,0,0,0,1.209-.949l.177-.215a9.353,9.353,0,0,0,.589-.809c.1-.153.207-.306.314-.455.057-.079.121-.152.185-.225.049-.055.1-.111.143-.17a1.913,1.913,0,0,0,.494-1.133c.007-.5.171-.606.627-.648l.044-.007,0-.033c.011-.106.023-.214.03-.322.014-.191.029-.38.044-.57.038-.477.078-.971.088-1.455a1.144,1.144,0,0,1,.575-1.065.709.709,0,0,0,.37-.721c-.012-.192-.01-.385-.007-.577,0-.125,0-.249,0-.374a5.456,5.456,0,0,1,.211-1.56,7.149,7.149,0,0,0,.2-1.4c.024-.364.018-.727.012-1.112,0-.169,0-.34,0-.513v-.192l.192.013h0c.131,0,.2-.07.319-.3s.24-.442.37-.672l.247-.437.155.082c.038.02.074.041.109.062a.9.9,0,0,0,.174.087,2.444,2.444,0,0,0,.523.122h0a.136.136,0,0,0,.158-.134,1.149,1.149,0,0,1,.449-.777c.238-.209.335-.337.2-.608l-.119-.244.436-.023c.092,0,.171-.009.249-.014l.088-.006c.136-.01.273-.02.408-.039.094-.013.112-.04.118-.115a2.45,2.45,0,0,1,.041-.281c.014-.075.028-.15.035-.225a.745.745,0,0,1,.373-.621.324.324,0,0,0,.109-.169,1.325,1.325,0,0,0-.008-.951,1.5,1.5,0,0,1-.106-.733c.034-.755.035-1.5.031-2.193a2.146,2.146,0,0,1,.289-1.139,12.986,12.986,0,0,0,.812-1.539,5.3,5.3,0,0,1,1.1-1.857,2.607,2.607,0,0,0,.368-.511c.062-.1.124-.2.191-.3a1.121,1.121,0,0,1,.188-.2,1.476,1.476,0,0,0,.171-.172l.166-.186-.013.051h.051l.256.436c.216.388.486.87.618,1.141a1.659,1.659,0,0,0,.111.183l.063.1a4.046,4.046,0,0,0,.323.352,1.43,1.43,0,0,0,.408.258,1.6,1.6,0,0,1,.857.788A1.454,1.454,0,0,1,967.9,552a1.314,1.314,0,0,0,.229.706,1.308,1.308,0,0,1,.16.242l.08.1a.812.812,0,0,1,.236.738c.167.167.343.327.521.484l.044.039a2.648,2.648,0,0,1,.688.792,1.55,1.55,0,0,1,.4.814.363.363,0,0,0,.024.075l.091.1a1.279,1.279,0,0,1,.2.306l.047.053a1.178,1.178,0,0,1,.327.853c-.006.249,0,.5,0,.752l0,.47-.541.213a.553.553,0,0,0-.405.579c0,.088,0,.175,0,.263a2.849,2.849,0,0,0,0,.354,4.39,4.39,0,0,1-.521,2.186.811.811,0,0,1-.307.34c-.264.17-.3.24-.246.534l.015.1a.968.968,0,0,0,.034.18.766.766,0,0,1-.108.714,1.364,1.364,0,0,0-.22.828c0,.137,0,.274,0,.411,0,.2-.005.4.006.6a1,1,0,0,1-.33.852.986.986,0,0,0-.319.846,2.249,2.249,0,0,1-.1.711.458.458,0,0,0,0,.324.776.776,0,0,1,.077.127,1.469,1.469,0,0,1,.422,1.167,1.612,1.612,0,0,1-.193.622.54.54,0,0,0-.039.537l.027.024c.055.068.111.137.162.208a.827.827,0,0,1,.069.124l.042.06c.052.064.1.127.151.193a.894.894,0,0,1-.047,1.188c-.3.362-.61.722-.927,1.074s-.634.7-.952,1.045q-.425.463-.848.928c-.406.45-.823.912-1.214,1.379a1.356,1.356,0,0,0-.314.833,4.762,4.762,0,0,0,0,.53,1.9,1.9,0,0,1-.958,1.81,6.954,6.954,0,0,1-1,.523,5.294,5.294,0,0,0-2.127,1.613,2.582,2.582,0,0,1-.231.249.73.73,0,0,1-.519.287h0a.986.986,0,0,1-.308-.061v0a1.158,1.158,0,0,0-.135.222,13.714,13.714,0,0,0-1.1,4.612,2.683,2.683,0,0,1-.715,1.747,4.425,4.425,0,0,1-1.827,1.329,1.164,1.164,0,0,0-.63.69c-.091.2-.19.388-.288.58-.086.168-.172.337-.253.508a1.352,1.352,0,0,0-.129.388,9.152,9.152,0,0,1-.623,2.311c-.14.351-.27.706-.4,1.061-.085.235-.17.469-.259.7-.161.423-.233.472-.7.476l-3.314,0q-4.755,0-9.51.009c-.271,0-.542.017-.813.033-.144.009-.289.017-.433.023-.042,0-.083,0-.131,0Zm26.852-49.514-.059.056a.924.924,0,0,0-.133.134c-.063.091-.121.186-.179.282a2.88,2.88,0,0,1-.424.581A4.946,4.946,0,0,0,962.96,551a13.423,13.423,0,0,1-.837,1.591,1.8,1.8,0,0,0-.239.956c0,.7,0,1.448-.032,2.21a1.183,1.183,0,0,0,.071.562,1.668,1.668,0,0,1,.031,1.2.661.661,0,0,1-.275.388.382.382,0,0,0-.2.343c-.008.086-.024.172-.04.258a2.309,2.309,0,0,0-.036.243.454.454,0,0,1-.427.444c-.142.02-.286.03-.43.041l-.087.006-.186.011a.829.829,0,0,1-.373.789.8.8,0,0,0-.328.539.49.49,0,0,1-.5.463l-.045,0a2.744,2.744,0,0,1-.6-.137.946.946,0,0,1-.194-.088l-.072.128c-.128.225-.25.44-.364.66a.814.814,0,0,1-.472.472q0,.174,0,.346c.006.392.012.763-.013,1.14a7.526,7.526,0,0,1-.208,1.469,5.084,5.084,0,0,0-.2,1.459c0,.129,0,.258,0,.387,0,.183-.006.366.006.549a1.061,1.061,0,0,1-.547,1.054.787.787,0,0,0-.4.762c-.01.495-.05.994-.089,1.477-.015.189-.03.378-.044.567-.008.112-.02.224-.032.335l-.03.294-.212.043a1.068,1.068,0,0,1-.129.023c-.3.028-.3.028-.3.3a2.25,2.25,0,0,1-.567,1.344c-.051.067-.106.13-.162.192a2.3,2.3,0,0,0-.162.2c-.106.147-.207.3-.308.447a9.755,9.755,0,0,1-.611.839c-.058.069-.115.14-.172.21a2.584,2.584,0,0,1-1.407,1.072c-.033.008-.094.022-.1.2,0,.1-.01.2-.018.291l-.016.228-.108.041a2.729,2.729,0,0,1-1.188.242.484.484,0,0,0-.249.051c-.149.072-.294.153-.438.235-.093.052-.186.1-.28.155a.177.177,0,0,0-.111.227,1.5,1.5,0,0,1,.042.307,1.182,1.182,0,0,1-.9,1.311.643.643,0,0,0-.415.343,3.115,3.115,0,0,1-.818.93,6.06,6.06,0,0,0-.655.581,10.077,10.077,0,0,1-2.6,1.905,1.123,1.123,0,0,0-.474.4l-.076.142a2.791,2.791,0,0,0-.488,1.636.853.853,0,0,1-.513.9,2.9,2.9,0,0,0-1.135.985c-.106.164-.209.33-.312.5-.219.353-.446.717-.7,1.061a1.751,1.751,0,0,0-.326,1c-.028.691-.046,1.382-.064,2.074l-.021.923a2.607,2.607,0,0,1-.008.27.553.553,0,0,1-.529.572c-.12.023-.241.043-.348.062q-.009.1-.018.2a4.805,4.805,0,0,0-.033.625,1.974,1.974,0,0,1-.624,1.456c-.154.165-.293.342-.454.546l-.018.022.583-.028-.306.388-.013.017h.018c.142-.007.285-.015.427-.024.278-.017.556-.033.833-.034q4.756-.008,9.511-.009l2.717,0h.589c.283,0,.283,0,.374-.243s.173-.464.257-.7c.13-.359.261-.718.4-1.072a8.788,8.788,0,0,0,.6-2.221,1.692,1.692,0,0,1,.161-.5c.083-.175.17-.346.258-.517.1-.189.193-.378.282-.57a1.542,1.542,0,0,1,.829-.875,4.078,4.078,0,0,0,1.682-1.228,2.347,2.347,0,0,0,.628-1.519,14.01,14.01,0,0,1,1.124-4.734,1.43,1.43,0,0,1,.176-.3c.025-.035.049-.07.071-.1l.077-.122.136.049a1.156,1.156,0,0,0,.318.085h0c.059,0,.108-.027.267-.183a2.294,2.294,0,0,0,.2-.213,5.64,5.64,0,0,1,2.266-1.722,6.673,6.673,0,0,0,.947-.5,1.545,1.545,0,0,0,.794-1.483,5.264,5.264,0,0,1,0-.57,1.733,1.733,0,0,1,.4-1.047c.4-.472.814-.936,1.219-1.385.285-.316.569-.625.852-.935q.477-.519.951-1.042c.314-.349.617-.706.919-1.065a.535.535,0,0,0,.03-.747c-.043-.059-.09-.117-.137-.174l-.088-.134a.423.423,0,0,0-.037-.069c-.047-.065-.1-.127-.148-.189l-.051-.063a.9.9,0,0,1,.029-.9,1.265,1.265,0,0,0,.147-.48,1.075,1.075,0,0,0-.311-.866.437.437,0,0,1-.046-.061c-.048-.08-.071-.124-.1-.165a.813.813,0,0,1-.024-.6,1.9,1.9,0,0,0,.087-.6,1.36,1.36,0,0,1,.44-1.125.65.65,0,0,0,.208-.562c-.011-.209-.009-.419-.007-.628,0-.134,0-.267,0-.4a1.714,1.714,0,0,1,.284-1.039.4.4,0,0,0,.062-.4,1.387,1.387,0,0,1-.049-.245l-.013-.089a.747.747,0,0,1,.405-.9.451.451,0,0,0,.165-.166,4.088,4.088,0,0,0,.5-2.025,3.338,3.338,0,0,1-.006-.4c0-.081,0-.163,0-.244a.912.912,0,0,1,.63-.923l.314-.124v-.223c0-.257,0-.51,0-.763a.816.816,0,0,0-.223-.59l-.109-.137a.923.923,0,0,0-.153-.241l-.137-.168a.738.738,0,0,1-.062-.193,1.216,1.216,0,0,0-.329-.648l-.029-.043a2.271,2.271,0,0,0-.611-.7l-.045-.039c-.2-.176-.4-.356-.584-.546l-.032-.034-.013-.045a.383.383,0,0,1-.006-.2c.043-.162-.02-.253-.156-.427l-.114-.153a1.354,1.354,0,0,0-.149-.224,1.7,1.7,0,0,1-.294-.909,1.093,1.093,0,0,0-.334-.815l-.039-.056a1.228,1.228,0,0,0-.685-.635,1.8,1.8,0,0,1-.511-.326,4.1,4.1,0,0,1-.369-.405l-.071-.107a2.065,2.065,0,0,1-.134-.224c-.128-.263-.363-.772-.577-1.156l-.014-.025" transform="translate(-950.599 -541.152)" fill="#e50019"/>
      </g>
    </g>
    <g id="Group_6" data-name="Group 6" transform="translate(974.74 529.618)">
      <g id="Group_5" data-name="Group 5" transform="translate(0 0)" clip-path="url(#clip-path-3)">
        <path id="Path_9" data-name="Path 9" d="M974.74,529.618V585.64h56.022V529.618Z" transform="translate(-974.74 -529.618)" fill="none" stroke="#e71a18" stroke-width="1"/>
      </g>
      <path id="Path_11" data-name="Path 11" d="M975.346,529.618s-.606,0-.606,1.582v52.859s0,1.582.606,1.582h54.809s.606,0,.606-1.582V531.2s0-1.582-.606-1.582Z" transform="translate(-974.74 -529.618)" fill="none" stroke="#e71a18" stroke-miterlimit="10" stroke-width="1"/>
    </g>
    <path id="Path_12" data-name="Path 12" d="M1149.067,654.491a.5.5,0,0,1,.516-.475h1.882l.258-.256v-.548h-2.4a1.12,1.12,0,0,0-1.218,1.133v2.849a1.12,1.12,0,0,0,1.218,1.133h2.583v-2.813h-.96v2.01h-1.366a.5.5,0,0,1-.516-.475v-2.557Zm5.988.036h-.7a1.067,1.067,0,0,0-.849.512h-.074l-.11-.438h-.628v3.726h.922V655.7a.7.7,0,0,1,.591-.365h.849v-.8Zm3.63,3.8v-2.74a1.006,1.006,0,0,0-1.069-.986H1155.7v.767h1.661a.367.367,0,0,1,.406.4v.256h-1.328a1.007,1.007,0,0,0-1.07.987v.4a1.007,1.007,0,0,0,1.07.986h.59a1.066,1.066,0,0,0,.849-.511h.074l.111.438Zm-1.512-.694h-.517a.347.347,0,0,1-.369-.365v-.109a.347.347,0,0,1,.369-.365h1.107v.439a.706.706,0,0,1-.59.4Zm-1.144-4.6v.913h.812v-.913Zm1.476,0v.913h.812v-.913Zm2.8,2.7a.358.358,0,0,1,.406-.365h1.476l.221-.219V654.6h-1.956a1.006,1.006,0,0,0-1.07.986v1.754a1.006,1.006,0,0,0,1.07.987h1.956v-.767h-1.7a.358.358,0,0,1-.406-.365v-1.461Zm3.671,2.594v-2.959h1.144a.358.358,0,0,1,.406.365v2.594h.922v-2.74a1.007,1.007,0,0,0-1.07-.986h-1.4v-1.388h-.923v5.115Zm6.5-2.813a1.007,1.007,0,0,0-1.07-.986h-1.181a1.007,1.007,0,0,0-1.07.986v1.827a1.007,1.007,0,0,0,1.07.987h2.1v-.767h-1.845a.358.358,0,0,1-.406-.365v-.365h2.4v-1.316Zm-2.4.146a.358.358,0,0,1,.406-.365h.664a.358.358,0,0,1,.406.365v.4h-1.475v-.4Zm4.02,2.667V655.7a.706.706,0,0,1,.59-.4h.554a.358.358,0,0,1,.406.365v2.667h.922v-2.813a1.006,1.006,0,0,0-1.07-.986h-.664a1.067,1.067,0,0,0-.849.512h-.074l-.11-.438h-.628v3.726Zm6.642-.475h-.038l-1.291-4.64h-.332v.146l1.439,4.969h.406l1.292-3.873h.037l1.292,3.873h.406l1.439-4.969v-.146h-.333l-1.291,4.64h-.037l-1.291-3.836h-.406l-1.291,3.836Zm6.875.548a1.049,1.049,0,0,0,.923-.621h.037l.074.548h.221v-2.7a1.014,1.014,0,0,0-1.07-1.023h-1.624v.292h1.624a.694.694,0,0,1,.738.731v.548h-1.624a1.013,1.013,0,0,0-1.07,1.023v.183a1.013,1.013,0,0,0,1.07,1.023Zm0-.292h-.7a.694.694,0,0,1-.738-.731v-.183a.694.694,0,0,1,.738-.73h1.624v.84s-.259.8-.923.8Zm2.342-4.9V657.3a1.013,1.013,0,0,0,1.07,1.023h.074v-.293h-.074a.694.694,0,0,1-.738-.73v-4.092Zm1.909,0V657.3a1.014,1.014,0,0,0,1.07,1.023h.074v-.293h-.074a.694.694,0,0,1-.738-.73v-4.092Zm2.331,1.388h-.332v3.726h.332V654.6Zm0-1.388h-.332v.84h.332v-.84Zm3.8,4.128c0-.548-.259-.789-.812-.913l-1.144-.255c-.369-.08-.553-.256-.553-.585a.637.637,0,0,1,.7-.694h1.661l.074-.073V654.6h-1.735a.955.955,0,0,0-1.033.986c0,.512.258.753.812.877l1.144.255a.63.63,0,0,1,.554.621.637.637,0,0,1-.7.694h-1.845v.293h1.845a.955.955,0,0,0,1.033-.987Zm3.46-1.534h-2.841v.292h2.841v-.292Zm3.268,1.023v.255a.887.887,0,0,1-.96.95h-2.14v.293h2.14a1.205,1.205,0,0,0,1.291-1.242v-.255a1.05,1.05,0,0,0-.885-1.1l-1.513-.329a.773.773,0,0,1-.627-.8v-.146a.887.887,0,0,1,.959-.95h1.882l.074-.073v-.219h-1.956a1.205,1.205,0,0,0-1.291,1.242v.146a1.05,1.05,0,0,0,.885,1.1l1.513.328a.8.8,0,0,1,.628.8Zm4.07,1.205h-1.7a.694.694,0,0,1-.738-.73v-1.681a.694.694,0,0,1,.738-.731h1.623l.074-.073V654.6h-1.7a1.014,1.014,0,0,0-1.07,1.023V657.3a1.014,1.014,0,0,0,1.07,1.023h1.7v-.293Zm1.213.293v-3.434h1.66a.694.694,0,0,1,.738.731v2.7h.332v-2.7a1.014,1.014,0,0,0-1.07-1.023h-1.66v-1.388h-.332v5.115Zm5.979-2.813.959,2.813h.369l1.07-3.581V654.6h-.332l-.922,3.288h-.037l-.922-2.777h-.406l-.922,2.777h-.037l-.922-3.288h-.332v.146l1.07,3.581h.369l.959-2.813Zm6.179.037a1.013,1.013,0,0,0-1.07-1.023h-.848a1.014,1.014,0,0,0-1.071,1.023V657.3a1.014,1.014,0,0,0,1.071,1.023h1.808v-.293h-1.808a.694.694,0,0,1-.738-.73v-.658h2.657v-1.1Zm-2.657,0a.694.694,0,0,1,.738-.731h.848a.694.694,0,0,1,.738.731v.8h-2.324v-.8Zm4.033-.95h-.332v3.726h.332V654.6Zm0-1.388h-.332v.84h.332v-.84Zm3.8,4.822h-2.472V658l2.472-3.105V654.6h-2.841v.219l.074.073h2.324v.036l-2.473,3.106v.293h2.915v-.293Z" transform="translate(-110.898 -78.943)" fill="#e50019"/>
    <path id="Path_13" data-name="Path 13" d="M1151.2,629.085l1.671-3.936h.037l.594,4.678h.334v-.148l-.668-5.049h-.446l-1.708,4.047h-.037l-1.708-4.047h-.446l-.668,5.049v.148h.334l.594-4.678h.037l1.671,3.936Zm5.134.816a1.056,1.056,0,0,0,.928-.631h.037l.074.557h.222V627.08a1.025,1.025,0,0,0-1.076-1.04h-1.634v.3h1.634a.7.7,0,0,1,.742.743v.557h-1.634a1.024,1.024,0,0,0-1.076,1.04v.186a1.024,1.024,0,0,0,1.076,1.039Zm0-.3h-.706a.7.7,0,0,1-.743-.742v-.186a.7.7,0,0,1,.743-.743h1.634v.854s-.26.817-.928.817Zm1.864-3.267h.631v2.45a1.025,1.025,0,0,0,1.077,1.04h.668v-.3h-.668a.7.7,0,0,1-.743-.743v-2.45h1.226v-.3h-1.226v-1.151h-.186l-.148,1.151h-.631v.3Zm2.805,0h.631v2.45a1.024,1.024,0,0,0,1.077,1.04h.669v-.3h-.669a.7.7,0,0,1-.742-.743v-2.45h1.225v-.3h-1.225v-1.151h-.186l-.148,1.151H1161v.3Zm6,.668a1.024,1.024,0,0,0-1.077-1.039h-.854a1.024,1.024,0,0,0-1.076,1.039v1.782a1.025,1.025,0,0,0,1.076,1.04h1.82v-.3h-1.82a.7.7,0,0,1-.742-.743v-.668H1167v-1.114Zm-2.673,0a.7.7,0,0,1,.742-.742h.854a.7.7,0,0,1,.742.742v.817h-2.339v-.817Zm5.534-1.039h-.705a1.056,1.056,0,0,0-.928.631h-.037l-.074-.557h-.223v3.787h.334V627.08s.26-.78.928-.78h.705v-.334Zm1,3.861v-3.49h1.671a.7.7,0,0,1,.742.743v2.747h.334V627.08a1.024,1.024,0,0,0-1.076-1.04h-1.671v-1.41h-.334v5.2Zm6.765-2.822a1.024,1.024,0,0,0-1.077-1.039h-.965a1.025,1.025,0,0,0-1.077,1.039v1.857a1.025,1.025,0,0,0,1.077,1.039h.965a1.024,1.024,0,0,0,1.077-1.039v-1.857Zm-.334,0v1.857a.7.7,0,0,1-.743.742h-.965a.7.7,0,0,1-.742-.742v-1.857a.7.7,0,0,1,.742-.742h.965a.7.7,0,0,1,.743.742Zm3.206-1.039h-.706a1.055,1.055,0,0,0-.928.631h-.037l-.074-.557h-.223v3.787h.334V627.08s.259-.78.928-.78h.706v-.334Zm1,3.861V627.08s.26-.817.928-.817h.743a.7.7,0,0,1,.742.742v2.822h.334v-2.822a1.024,1.024,0,0,0-1.076-1.039h-.743a1.057,1.057,0,0,0-.928.631h-.037l-.074-.557h-.223v3.787Zm6.112-.409h-.037l-1.634-4.789h-.334v.148l1.782,5.05h.409l1.782-5.05v-.148h-.334l-1.634,4.789Zm3.961.482a1.056,1.056,0,0,0,.928-.631h.038l.074.557h.223V627.08a1.024,1.024,0,0,0-1.076-1.04h-1.634v.3h1.634a.7.7,0,0,1,.742.743v.557h-1.634a1.025,1.025,0,0,0-1.077,1.04v.186a1.025,1.025,0,0,0,1.077,1.039Zm0-.3h-.705a.7.7,0,0,1-.742-.742v-.186a.7.7,0,0,1,.742-.743h1.634v.854s-.26.817-.928.817Zm2.2-4.975v4.158a1.025,1.025,0,0,0,1.077,1.04h.074v-.3h-.074a.7.7,0,0,1-.743-.743V624.63Zm1.763,0v4.158a1.025,1.025,0,0,0,1.077,1.04h.075v-.3h-.075a.7.7,0,0,1-.743-.743V624.63Zm4.734,2.376a1.024,1.024,0,0,0-1.077-1.039h-.854a1.025,1.025,0,0,0-1.077,1.039v1.782a1.025,1.025,0,0,0,1.077,1.04h1.819v-.3h-1.819a.7.7,0,0,1-.743-.743v-.668h2.674v-1.114Zm-2.674,0a.7.7,0,0,1,.743-.742h.854a.7.7,0,0,1,.742.742v.817h-2.339v-.817Zm6.52-.817v-.149h-.335l-1.225,3.416h-.037l-1.337-3.416h-.334v.149l1.522,3.676c-.148.557-.52.928-.928.928h-.186v.3h.186c.593,0,.921-.333,1.262-1.225l1.411-3.676Zm1.507-1.559v5.2h.334V627.3h2.9v2.525h.334v-5.2h-.334v2.376h-2.9V624.63Zm7.7,2.376a1.024,1.024,0,0,0-1.077-1.039h-.965a1.025,1.025,0,0,0-1.077,1.039v1.857a1.025,1.025,0,0,0,1.077,1.039h.965a1.024,1.024,0,0,0,1.077-1.039v-1.857Zm-.334,0v1.857a.7.7,0,0,1-.743.742h-.965a.7.7,0,0,1-.743-.742v-1.857a.7.7,0,0,1,.743-.742h.965a.7.7,0,0,1,.743.742Zm.924-.668h.631v2.45a1.025,1.025,0,0,0,1.077,1.04h.668v-.3h-.668a.7.7,0,0,1-.743-.743v-2.45h1.226v-.3h-1.226v-1.151h-.186l-.148,1.151h-.631v.3Zm6,.668a1.025,1.025,0,0,0-1.077-1.039h-.854a1.024,1.024,0,0,0-1.077,1.039v1.782a1.025,1.025,0,0,0,1.077,1.04h1.819v-.3h-1.819a.7.7,0,0,1-.742-.743v-.668h2.673v-1.114Zm-2.673,0a.7.7,0,0,1,.742-.742h.854a.7.7,0,0,1,.742.742v.817h-2.339v-.817Zm3.566-2.376v4.158a1.025,1.025,0,0,0,1.077,1.04h.074v-.3h-.074a.7.7,0,0,1-.743-.743V624.63Zm4.6,4.2c0-.557-.26-.8-.817-.929l-1.151-.26c-.372-.082-.557-.259-.557-.594a.644.644,0,0,1,.705-.705h1.671l.074-.074v-.223H1223.6a.965.965,0,0,0-1.04,1c0,.52.26.765.817.891l1.151.26a.674.674,0,0,1-.148,1.337h-1.857v.3h1.857a.965.965,0,0,0,1.039-1Z" transform="translate(-110.93 -60.777)" fill="#1a1818"/>
    <line id="Line_1" data-name="Line 1" x2="77.248" transform="translate(1037.193 571.953)" fill="none" stroke="#e50019" stroke-width="0.769"/>
    <path id="Path_14" data-name="Path 14" d="M1306.475,585.86l.987,1.184.617-.436-.864-1.309,1.419-.5-.185-.748-1.481.312-.124-1.559h-.74l-.123,1.559-1.481-.312-.185.748,1.42.5-.864,1.309.617.436.987-1.184Zm5.185,0,.987,1.184.617-.436-.865-1.309,1.42-.5-.185-.748-1.481.312-.124-1.559h-.741l-.124,1.559-1.481-.312-.185.748,1.42.5-.864,1.309.617.436.988-1.184Zm5.184,0,.988,1.184.617-.436-.864-1.309,1.42-.5-.185-.748-1.482.312-.123-1.559h-.741l-.123,1.559-1.481-.312-.185.748,1.42.5-.864,1.309.617.436.988-1.184Z" transform="translate(-210.82 -34.022)" fill="#e50019"/>
    <path id="Path_15" data-name="Path 15" d="M1148.088,582.473V591.2h1.621v-3.741h3.242V591.2h1.621v-8.728h-1.621v3.616h-3.242v-3.616Zm13.279,8.728v-4.676a1.708,1.708,0,0,0-1.808-1.683h-3.242v1.309h2.806a.624.624,0,0,1,.686.686v.437h-2.245a1.708,1.708,0,0,0-1.808,1.683v.686a1.708,1.708,0,0,0,1.808,1.683h1a1.8,1.8,0,0,0,1.433-.873h.125l.187.748Zm-2.556-1.185h-.873a.589.589,0,0,1-.624-.623v-.187a.589.589,0,0,1,.624-.623h1.87v.748a1.2,1.2,0,0,1-1,.686Zm5.487,1.185v-4.489a1.194,1.194,0,0,1,1-.686h.936a.607.607,0,0,1,.685.623V591.2h1.559v-4.8a1.708,1.708,0,0,0-1.808-1.683h-1.123a1.8,1.8,0,0,0-1.434.873h-.125l-.187-.748h-1.06V591.2Zm7.106,0v-4.489a1.2,1.2,0,0,1,1-.686h.935a.608.608,0,0,1,.685.623V591.2h1.559v-4.8a1.708,1.708,0,0,0-1.808-1.683h-1.122a1.8,1.8,0,0,0-1.434.873h-.125l-.187-.748h-1.06V591.2Zm7.107-6.359h-1.558V591.2h1.558v-6.359Zm0-2.556h-1.558v1.746h1.558v-1.746Zm5.673,2.618.748-.686V583.6h-1.309l-.686,1.122H1181.5a1.708,1.708,0,0,0-1.809,1.683v.686a1.452,1.452,0,0,0,.561,1.185v.125a.565.565,0,0,0-.312.511v.174a.537.537,0,0,0,.312.5v.125a1.728,1.728,0,0,0-1,1.5v.374a1.921,1.921,0,0,0,1.933,1.808h2.494a1.921,1.921,0,0,0,1.933-1.808V591.2a1.921,1.921,0,0,0-1.933-1.808h-2.145a.255.255,0,0,1-.224-.249v-.125a.225.225,0,0,1,.212-.249h1.845a1.708,1.708,0,0,0,1.808-1.683V586.4a1.469,1.469,0,0,0-1-1.371V584.9Zm-.125,6.484a.624.624,0,0,1-.686.685h-1.87a.686.686,0,1,1,0-1.371h1.87a.624.624,0,0,1,.686.686Zm-.437-4.676v.062a.624.624,0,0,1-.686.686h-1a.624.624,0,0,1-.686-.686v-.062a.624.624,0,0,1,.686-.686h1a.624.624,0,0,1,.686.686Zm8.043,4.489v-4.676a1.708,1.708,0,0,0-1.809-1.683h-3.242v1.309h2.805a.624.624,0,0,1,.686.686v.437h-2.244a1.708,1.708,0,0,0-1.808,1.683v.686a1.708,1.708,0,0,0,1.808,1.683h1a1.8,1.8,0,0,0,1.433-.873h.125l.187.748Zm-2.557-1.185h-.873a.589.589,0,0,1-.623-.623v-.187a.589.589,0,0,1,.623-.623h1.87v.748a1.2,1.2,0,0,1-1,.686Zm4.052-7.543v7.045a1.7,1.7,0,0,0,1.808,1.683h.81v-1.309h-.375a.608.608,0,0,1-.686-.623v-6.8Zm3.366,10.848h1.559V591.2h2.369a1.708,1.708,0,0,0,1.808-1.683V586.4a1.708,1.708,0,0,0-1.808-1.683h-1.122a1.8,1.8,0,0,0-1.434.873h-.124l-.188-.748h-1.06v8.478Zm1.559-3.429v-3.179a1.2,1.2,0,0,1,1-.686h.935a.608.608,0,0,1,.686.623v2.619a.608.608,0,0,1-.686.623Z" transform="translate(-110.886 -33.691)" fill="#1a1818"/>
    <path id="Path_16" data-name="Path 16" d="M1350.9,585.766a.319.319,0,0,1-.359.362h-2.035v.846h2.234a1.1,1.1,0,0,0,1.157-1.088v-.2a1.045,1.045,0,0,0-.878-1.048l-1.157-.2c-.239-.04-.319-.169-.319-.4a.366.366,0,0,1,.4-.322h1.556l.239-.242v-.6H1349.7a1.1,1.1,0,0,0-1.157,1.088v.161a1.123,1.123,0,0,0,.917,1.088l1.117.2a.346.346,0,0,1,.319.363Z" transform="translate(-239.089 -34.06)" fill="#e50019"/>
    <text id="Aktiv_Hotel_Spa" data-name="Aktiv Hotel &amp; Spa" transform="translate(1036.833 543.192)" fill="#1a1818" font-size="11" font-family="TTSupermolot-Bold, TT Supermolot" font-weight="700"><tspan x="0" y="0">Aktiv Hotel &amp; Spa</tspan></text>
  </g>
</svg>
