<svg xmlns="http://www.w3.org/2000/svg" xmlns:xlink="http://www.w3.org/1999/xlink" width="191.734" height="74.292" viewBox="0 0 191.734 74.292">
  <defs>
    <clipPath id="clip-path">
      <path id="Path_2" data-name="Path 2" d="M976.809,529.618a2.027,2.027,0,0,0-2.069,2.07V600.84a2.026,2.026,0,0,0,2.069,2.069h187.077a2.027,2.027,0,0,0,2.07-2.069V531.688a2.027,2.027,0,0,0-2.07-2.07Z" transform="translate(-974.74 -529.618)" fill="none"/>
    </clipPath>
    <clipPath id="clip-path-2">
      <path id="Intersection_1" data-name="Intersection 1" d="M2.069,73.291A2.025,2.025,0,0,1,0,71.223V2.07A2.027,2.027,0,0,1,2.069,0H73.291V73.291Z" fill="none"/>
    </clipPath>
    <clipPath id="clip-path-3">
      <path id="Path_10" data-name="Path 10" d="M975.533,529.618s-.793,0-.793,2.07V600.84s0,2.069.793,2.069h71.7s.793,0,.793-2.069V531.688s0-2.07-.793-2.07Z" transform="translate(-974.74 -529.618)" fill="none" stroke="#e71a18" stroke-miterlimit="10" stroke-width="1"/>
    </clipPath>
  </defs>
  <g id="Group_10" data-name="Group 10" transform="translate(-974.24 -529.118)">
    <g id="Group_2" data-name="Group 2" transform="translate(974.74 529.618)">
      <g id="Group_1" data-name="Group 1" transform="translate(0 0)" clip-path="url(#clip-path)">
        <path id="Path_1" data-name="Path 1" d="M974.74,529.618v73.292h73.291V529.618Z" transform="translate(-974.74 -529.618)" fill="#fff"/>
      </g>
    </g>
    <g id="Group_4" data-name="Group 4" transform="translate(974.74 529.618)">
      <g id="Group_3" data-name="Group 3" transform="translate(0 0)" clip-path="url(#clip-path-2)">
        <path id="Path_3" data-name="Path 3" d="M995.9,548.511c.277.5.534.922.75,1.364a4.741,4.741,0,0,0,1.043,1.389,2.107,2.107,0,0,0,.6.382,1.743,1.743,0,0,1,1.185,1.691,2.463,2.463,0,0,0,.663,1.519.829.829,0,0,1,.26.785.676.676,0,0,0,.209.493,11.776,11.776,0,0,0,.9.846,2.523,2.523,0,0,1,1.058,1.516,1.975,1.975,0,0,0,.549.846,1.3,1.3,0,0,1,.35.932c-.012.477,0,.954,0,1.444-.213.084-.385.151-.558.22a.956.956,0,0,0-.677.982c.008.274-.021.551.005.823a5.565,5.565,0,0,1-.672,2.764.813.813,0,0,1-.3.321.75.75,0,0,0-.427.935,2.791,2.791,0,0,0,.073.4.763.763,0,0,1-.112.726,2.024,2.024,0,0,0-.329,1.221c.008.445-.017.893.008,1.337a1.087,1.087,0,0,1-.353.925,1.53,1.53,0,0,0-.5,1.29,2.7,2.7,0,0,1-.124.855.774.774,0,0,0,.17.848,1.651,1.651,0,0,1,.468,1.316,1.886,1.886,0,0,1-.222.721.988.988,0,0,0,.14,1.229c.143.171.284.343.414.524a.931.931,0,0,1-.051,1.266c-.4.471-.8.941-1.208,1.4-.779.865-1.573,1.718-2.353,2.581-.539.6-1.078,1.195-1.6,1.811a2.024,2.024,0,0,0-.465,1.229,6.314,6.314,0,0,0,0,.719,2.265,2.265,0,0,1-1.146,2.154,9.145,9.145,0,0,1-1.272.667,7.183,7.183,0,0,0-2.874,2.182,3.022,3.022,0,0,1-.28.3c-.367.362-.459.381-1.01.183a2.968,2.968,0,0,0-.3.488,18.1,18.1,0,0,0-1.454,6.113,3.3,3.3,0,0,1-.879,2.136,5.621,5.621,0,0,1-2.295,1.673,1.783,1.783,0,0,0-.955,1.023c-.224.479-.48.944-.707,1.422a1.968,1.968,0,0,0-.19.58,11.732,11.732,0,0,1-.8,2.965c-.306.763-.57,1.543-.862,2.311-.16.421-.186.462-.568.469v.346q1.82,0,3.64,0h71.62c.2,0,.4-.015.634-.025a4.208,4.208,0,0,0-.106-.453c-.892-2.45-1.454-5-2.231-7.484a45.01,45.01,0,0,0-3.125-7.816,25.653,25.653,0,0,0-5.1-6.73c-.223-.209-.392-.475-.607-.693a2.01,2.01,0,0,0-.514-.4c-.522-.259-1.052-.5-1.591-.722a3,3,0,0,1-1.392-1.17,3.148,3.148,0,0,0-.778-.872,12.2,12.2,0,0,0-1.587-.838,2.826,2.826,0,0,1-1.286-1.063,3.012,3.012,0,0,0-2.649-1.4c-1.215-.054-2.435-.012-3.653-.012-1.063,0-1.063,0-1.723-.854a6.928,6.928,0,0,0-2.483-2.187,3.217,3.217,0,0,1-1.363-1.206c-.187-.287-.386-.567-.563-.861a2.054,2.054,0,0,0-1.919-1.066,1.314,1.314,0,0,1-.905-.3c-.365-.309-.705-.649-1.075-.954a.994.994,0,0,1-.412-1.248,1.312,1.312,0,0,0,.073-.454,5.747,5.747,0,0,0-.409-2.86c-.379-.749-.725-1.514-1.087-2.271-.125-.263-.246-.528-.381-.783-.508-.953-1.056-1.885-1.524-2.857q-1.3-2.708-2.531-5.455a4.651,4.651,0,0,0-1.456-1.755c-.78-.614-1.539-1.255-2.283-1.912a10.273,10.273,0,0,0-2.4-1.746,3.693,3.693,0,0,1-1.809-1.813,3.588,3.588,0,0,0-1.427-1.646c-.672-.377-1.354-.734-2.032-1.1-.286-.154-.579-.3-.86-.46a8.537,8.537,0,0,0-4.328-1.285,5.406,5.406,0,0,1-1.87-.779c-.1,0,.039.369-.064.369" transform="translate(-977.097 -539.149)" fill="#e50019"/>
        <path id="Path_4" data-name="Path 4" d="M981.348,559.771l-.1-.119a1.493,1.493,0,0,0-.239-.375l-.142-.162a.749.749,0,0,1-.063-.191,1.822,1.822,0,0,0-.487-.969,3.355,3.355,0,0,0-.915-1.041c-.257-.226-.511-.458-.751-.7a.279.279,0,0,1-.01-.143.828.828,0,0,0-.26-.785c-.046-.058-.086-.118-.13-.176a1.8,1.8,0,0,0-.2-.3,1.974,1.974,0,0,1-.334-1.046,1.657,1.657,0,0,0-.509-1.234,1.849,1.849,0,0,0-1.019-.951,2.122,2.122,0,0,1-.6-.381,5.238,5.238,0,0,1-.461-.509,4.337,4.337,0,0,1-.239-.387c-.216-.442-.728-1.344-1-1.843,0,0,0,.012-.005.016a.134.134,0,0,0-.008-.016c-.159.2-.357.32-.46.469a7.241,7.241,0,0,1-.76,1.1,6.7,6.7,0,0,0-1.384,2.352,17.17,17.17,0,0,1-1.077,2.041,2.58,2.58,0,0,0-.345,1.37c.006.96,0,1.921-.042,2.879a1.74,1.74,0,0,0,.115.848,1.969,1.969,0,0,1,.026,1.4.638.638,0,0,1-.252.365.735.735,0,0,0-.372.63c-.02.221-.082.438-.1.66a.364.364,0,0,1-.356.365c-.22.03-.442.043-.663.06-.16.012-.322.018-.548.03.255.524-.014.8-.321,1.075a1.277,1.277,0,0,0-.509.861.408.408,0,0,1-.462.388,3.382,3.382,0,0,1-.736-.169,2.64,2.64,0,0,1-.411-.212c-.246.439-.48.835-.691,1.244-.148.286-.307.537-.645.513,0,.74.033,1.443-.01,2.142a9.531,9.531,0,0,1-.265,1.875,6.958,6.958,0,0,0-.268,1.975c.009.411-.019.824.007,1.234a1.157,1.157,0,0,1-.6,1.162,1.271,1.271,0,0,0-.636,1.2c-.017.887-.109,1.773-.173,2.66-.015.216-.042.431-.064.642-.118.024-.184.042-.251.049-.5.047-.6.109-.607.618a2.725,2.725,0,0,1-.694,1.62c-.133.177-.3.331-.427.512-.4.554-.753,1.147-1.193,1.668a3.791,3.791,0,0,1-1.939,1.6c-.231.053-.306.25-.312.478,0,.182-.023.364-.034.52a3.4,3.4,0,0,1-1.455.3.919.919,0,0,0-.444.09c-.323.156-.631.344-.949.514a.462.462,0,0,0-.264.552,1.765,1.765,0,0,1,.051.355,1.337,1.337,0,0,1-.986,1.484,1.076,1.076,0,0,0-.7.56,3.88,3.88,0,0,1-1.008,1.149,8.183,8.183,0,0,0-.883.782,12.888,12.888,0,0,1-3.34,2.448,1.7,1.7,0,0,0-.72.628,4.244,4.244,0,0,0-.764,2.462.88.88,0,0,1-.546.947,4.044,4.044,0,0,0-1.574,1.368c-.436.676-.841,1.375-1.311,2.026a2.539,2.539,0,0,0-.471,1.436c-.051,1.248-.076,2.5-.11,3.747-.006.171,0,.344-.012.514-.035.36-.145.474-.5.54-.229.043-.46.08-.632.109a12.554,12.554,0,0,0-.082,1.291,2.335,2.335,0,0,1-.754,1.736c-.309.332-.578.7-.932,1.138.256,0,.389.005.522,0l.224-.013c-.127.161-.255.325-.4.507.256,0,.389.005.522,0,.546-.024,1.093-.074,1.639-.075q8-.013,16-.014c.258,0,.514,0,.772,0,.522,0,.53,0,.708-.47.292-.769.556-1.548.862-2.311a11.739,11.739,0,0,0,.8-2.964,1.952,1.952,0,0,1,.19-.581c.227-.478.483-.943.707-1.422a1.783,1.783,0,0,1,.955-1.023,5.62,5.62,0,0,0,2.295-1.673,3.3,3.3,0,0,0,.879-2.136,18.107,18.107,0,0,1,1.454-6.113,2.952,2.952,0,0,1,.3-.488c.551.2.643.18,1.01-.183a3.038,3.038,0,0,0,.28-.3,7.181,7.181,0,0,1,2.874-2.182,9.141,9.141,0,0,0,1.272-.667,2.264,2.264,0,0,0,1.146-2.154,6.286,6.286,0,0,1,0-.719,2.017,2.017,0,0,1,.465-1.229c.518-.617,1.056-1.215,1.6-1.812.781-.864,1.575-1.717,2.353-2.581.412-.458.812-.927,1.208-1.4a.931.931,0,0,0,.051-1.266c-.077-.108-.164-.21-.247-.313a1.272,1.272,0,0,0-.1-.18c-.084-.118-.178-.229-.269-.341a.943.943,0,0,1,.058-.918,1.888,1.888,0,0,0,.222-.721,1.651,1.651,0,0,0-.468-1.316.768.768,0,0,1-.058-.078,1.7,1.7,0,0,0-.111-.188.843.843,0,0,1,0-.581,2.7,2.7,0,0,0,.124-.855,1.529,1.529,0,0,1,.5-1.289,1.09,1.09,0,0,0,.353-.926c-.025-.444,0-.891-.007-1.337a2.022,2.022,0,0,1,.328-1.221.762.762,0,0,0,.112-.726,2.794,2.794,0,0,1-.073-.4.75.75,0,0,1,.427-.935.812.812,0,0,0,.3-.322,5.566,5.566,0,0,0,.672-2.764c-.026-.272,0-.548-.005-.823a.957.957,0,0,1,.677-.982c.173-.069.345-.136.558-.22,0-.489-.009-.967,0-1.444a1.3,1.3,0,0,0-.35-.932Z" transform="translate(-955.328 -539.578)" fill="#fff"/>
        <path id="Path_5" data-name="Path 5" d="M1100.018,650.6h-4.612v-4.612h-4.468V650.6h-4.612v4.467h4.612v4.612h4.468v-4.612h4.612V650.6Z" transform="translate(-1033.724 -591.13)" fill="#fff"/>
        <path id="Path_6" data-name="Path 6" d="M938.2,613.171l-.857,0,.313-.384.088-.109H937l.313-.384c.115-.142.222-.277.324-.406.208-.264.4-.514.619-.744a2.08,2.08,0,0,0,.691-1.566,6.666,6.666,0,0,1,.045-.88c.013-.14.027-.285.038-.437l.013-.184.341-.058c.143-.025.306-.052.47-.082.257-.048.286-.079.311-.332.01-.1.009-.2.008-.305,0-.064,0-.128,0-.192l.027-1.03c.023-.907.046-1.814.083-2.72a2.777,2.777,0,0,1,.516-1.564c.316-.437.609-.906.891-1.361.137-.219.274-.437.413-.655a4.258,4.258,0,0,1,1.661-1.45.647.647,0,0,0,.423-.714,4.066,4.066,0,0,1,.692-2.413l.1-.183a1.942,1.942,0,0,1,.821-.728,12.718,12.718,0,0,0,3.28-2.4,8.293,8.293,0,0,1,.909-.805,3.615,3.615,0,0,0,.946-1.08,1.3,1.3,0,0,1,.865-.671c.69-.124.793-.839.793-1.253a1.417,1.417,0,0,0-.042-.284.708.708,0,0,1,.38-.831c.12-.064.239-.13.357-.2.2-.112.4-.222.6-.321a1.157,1.157,0,0,1,.495-.115l.068,0a2.946,2.946,0,0,0,1.216-.235v0c.01-.113.018-.234.022-.355a.652.652,0,0,1,.494-.7,2.971,2.971,0,0,0,1.582-1.241l.231-.281a12.222,12.222,0,0,0,.77-1.058c.135-.2.271-.4.411-.595.074-.1.158-.2.242-.295.065-.072.13-.145.188-.222a2.5,2.5,0,0,0,.647-1.482c.009-.656.224-.793.82-.848a.524.524,0,0,0,.057-.009l0-.043c.015-.139.03-.28.039-.421.018-.249.038-.5.058-.746.05-.625.1-1.271.115-1.9a1.5,1.5,0,0,1,.753-1.393.927.927,0,0,0,.484-.944c-.016-.251-.013-.5-.009-.755,0-.163,0-.326,0-.489a7.141,7.141,0,0,1,.276-2.041,9.35,9.35,0,0,0,.257-1.829c.031-.476.023-.952.016-1.455,0-.221-.006-.444-.006-.671v-.252l.251.017h0c.172,0,.264-.091.417-.387s.313-.579.484-.879l.323-.572.2.108c.049.027.1.054.143.081a1.176,1.176,0,0,0,.227.114,3.2,3.2,0,0,0,.685.16h0a.178.178,0,0,0,.207-.175,1.5,1.5,0,0,1,.587-1.017c.311-.273.439-.441.266-.8l-.156-.319.571-.03c.121-.006.224-.011.326-.019l.115-.008c.178-.013.357-.026.534-.051.123-.017.147-.052.155-.15a3.206,3.206,0,0,1,.053-.368c.018-.1.036-.2.045-.295a.975.975,0,0,1,.488-.813.423.423,0,0,0,.143-.221,1.734,1.734,0,0,0-.011-1.244,1.964,1.964,0,0,1-.138-.958c.044-.987.046-1.962.041-2.869a2.807,2.807,0,0,1,.378-1.49,16.973,16.973,0,0,0,1.063-2.013,6.938,6.938,0,0,1,1.437-2.43,3.407,3.407,0,0,0,.481-.669c.081-.133.162-.267.25-.394a1.469,1.469,0,0,1,.246-.257,1.936,1.936,0,0,0,.224-.224l.217-.244-.017.067h.067l.335.571c.283.507.635,1.139.808,1.493a2.175,2.175,0,0,0,.145.239l.083.127a5.31,5.31,0,0,0,.422.461,1.872,1.872,0,0,0,.533.338,2.093,2.093,0,0,1,1.122,1.031,1.9,1.9,0,0,1,.548,1.369,1.718,1.718,0,0,0,.3.923,1.71,1.71,0,0,1,.209.317l.1.136a1.062,1.062,0,0,1,.309.965c.219.219.449.428.682.633l.058.051a3.463,3.463,0,0,1,.9,1.036,2.026,2.026,0,0,1,.521,1.065.472.472,0,0,0,.031.1l.119.135a1.673,1.673,0,0,1,.261.4l.061.07a1.541,1.541,0,0,1,.428,1.116c-.008.326-.006.653,0,.983l0,.615-.707.278a.724.724,0,0,0-.53.757c0,.115,0,.229,0,.345a3.727,3.727,0,0,0,.005.463,5.744,5.744,0,0,1-.682,2.86,1.06,1.06,0,0,1-.4.444c-.346.223-.388.314-.322.7l.02.134a1.282,1.282,0,0,0,.045.236,1,1,0,0,1-.141.933,1.785,1.785,0,0,0-.288,1.083c0,.179,0,.359,0,.538,0,.263-.007.527.008.79a1.307,1.307,0,0,1-.432,1.114,1.291,1.291,0,0,0-.417,1.107,2.941,2.941,0,0,1-.134.931.6.6,0,0,0-.005.423,1.013,1.013,0,0,1,.1.166,1.922,1.922,0,0,1,.552,1.527,2.108,2.108,0,0,1-.252.814.706.706,0,0,0-.051.7l.036.032c.072.09.145.179.212.272a1.079,1.079,0,0,1,.09.162l.056.079c.068.083.136.167.2.252a1.169,1.169,0,0,1-.062,1.554c-.4.473-.8.945-1.212,1.4s-.83.912-1.245,1.367q-.556.605-1.109,1.214c-.531.589-1.077,1.193-1.589,1.8a1.775,1.775,0,0,0-.411,1.089,6.229,6.229,0,0,0,0,.693,2.489,2.489,0,0,1-1.254,2.367,9.114,9.114,0,0,1-1.3.684,6.925,6.925,0,0,0-2.783,2.11,3.371,3.371,0,0,1-.3.326.955.955,0,0,1-.679.375h0a1.291,1.291,0,0,1-.4-.08l0,0a1.518,1.518,0,0,0-.176.291,17.943,17.943,0,0,0-1.439,6.033,3.51,3.51,0,0,1-.936,2.285,5.789,5.789,0,0,1-2.39,1.739,1.522,1.522,0,0,0-.824.9c-.12.255-.248.507-.377.759-.113.22-.225.441-.331.664a1.77,1.77,0,0,0-.169.508,11.977,11.977,0,0,1-.815,3.023c-.184.459-.353.924-.522,1.388-.112.308-.223.614-.339.918-.21.554-.3.618-.918.623l-4.336,0q-6.22,0-12.441.012c-.354,0-.709.022-1.063.043-.189.011-.378.023-.567.03-.055,0-.109,0-.171,0Zm35.129-64.777-.078.074a1.21,1.21,0,0,0-.173.176c-.082.119-.159.244-.234.369a3.771,3.771,0,0,1-.554.761,6.47,6.47,0,0,0-1.327,2.263,17.558,17.558,0,0,1-1.1,2.082,2.355,2.355,0,0,0-.313,1.25c0,.912,0,1.894-.042,2.891a1.546,1.546,0,0,0,.093.736,2.183,2.183,0,0,1,.041,1.565.865.865,0,0,1-.36.507.5.5,0,0,0-.256.449c-.01.113-.031.225-.052.338a3.018,3.018,0,0,0-.048.318.594.594,0,0,1-.559.581c-.186.026-.375.04-.563.053l-.114.008-.244.015a1.085,1.085,0,0,1-.488,1.032,1.044,1.044,0,0,0-.429.7.642.642,0,0,1-.656.605l-.059,0a3.588,3.588,0,0,1-.788-.179,1.236,1.236,0,0,1-.253-.115l-.095.168c-.167.295-.328.576-.476.863a1.065,1.065,0,0,1-.617.618c0,.152,0,.3.005.452.008.513.015,1-.016,1.491a9.848,9.848,0,0,1-.272,1.922,6.65,6.65,0,0,0-.259,1.909c0,.169,0,.338,0,.506,0,.24-.007.479.008.718a1.388,1.388,0,0,1-.716,1.379,1.03,1.03,0,0,0-.52,1c-.013.648-.066,1.3-.117,1.932-.02.248-.04.494-.057.742-.01.147-.027.293-.042.438l-.039.384-.277.056a1.417,1.417,0,0,1-.169.03c-.39.036-.39.036-.394.387a2.944,2.944,0,0,1-.741,1.758c-.066.088-.139.17-.212.252a3.02,3.02,0,0,0-.212.256c-.139.192-.271.388-.4.585a12.765,12.765,0,0,1-.8,1.1c-.075.09-.15.182-.225.274a3.38,3.38,0,0,1-1.841,1.4c-.043.011-.124.029-.13.257,0,.129-.013.259-.023.38l-.021.3-.141.053a3.57,3.57,0,0,1-1.555.317.633.633,0,0,0-.326.067c-.195.094-.384.2-.573.307-.121.068-.244.137-.367.2a.231.231,0,0,0-.145.3,1.971,1.971,0,0,1,.056.4,1.546,1.546,0,0,1-1.179,1.715.842.842,0,0,0-.543.449,4.075,4.075,0,0,1-1.07,1.217,7.917,7.917,0,0,0-.857.76,13.181,13.181,0,0,1-3.4,2.492,1.469,1.469,0,0,0-.619.529l-.1.185a3.651,3.651,0,0,0-.639,2.14,1.116,1.116,0,0,1-.672,1.181,3.8,3.8,0,0,0-1.484,1.288c-.138.214-.273.431-.409.648-.287.462-.584.938-.909,1.388a2.29,2.29,0,0,0-.427,1.308c-.037.9-.06,1.808-.083,2.713l-.028,1.207a3.427,3.427,0,0,1-.011.353.723.723,0,0,1-.693.749c-.157.03-.315.056-.456.081-.008.09-.016.177-.024.263a6.269,6.269,0,0,0-.043.818,2.583,2.583,0,0,1-.817,1.9c-.2.216-.383.447-.594.715l-.023.029.762-.036-.4.507-.017.023h.024c.186-.009.373-.02.558-.031.364-.022.727-.043,1.09-.044q6.222-.01,12.443-.011l3.555,0h.386l.384,0c.37,0,.37,0,.49-.318s.226-.607.336-.912c.171-.469.341-.939.527-1.4a11.5,11.5,0,0,0,.784-2.905,2.212,2.212,0,0,1,.21-.652c.108-.229.223-.452.338-.677.126-.247.252-.494.369-.745a2.017,2.017,0,0,1,1.085-1.145,5.335,5.335,0,0,0,2.2-1.606,3.07,3.07,0,0,0,.821-1.987,18.328,18.328,0,0,1,1.47-6.193,1.875,1.875,0,0,1,.23-.392c.032-.046.064-.092.093-.137l.1-.16.178.065a1.512,1.512,0,0,0,.416.112h0c.078,0,.142-.036.349-.24a3.013,3.013,0,0,0,.259-.278,7.378,7.378,0,0,1,2.964-2.252,8.734,8.734,0,0,0,1.239-.65,2.022,2.022,0,0,0,1.039-1.941,6.881,6.881,0,0,1,0-.746,2.268,2.268,0,0,1,.521-1.37c.517-.618,1.064-1.224,1.595-1.812.373-.413.744-.817,1.115-1.223q.623-.68,1.244-1.363c.411-.456.807-.924,1.2-1.394a.7.7,0,0,0,.039-.978c-.056-.077-.118-.153-.18-.228l-.116-.175a.551.551,0,0,0-.049-.09c-.061-.085-.127-.166-.194-.247l-.067-.083a1.181,1.181,0,0,1,.038-1.181,1.653,1.653,0,0,0,.192-.628,1.407,1.407,0,0,0-.407-1.133.57.57,0,0,1-.06-.079c-.062-.105-.093-.162-.129-.216a1.064,1.064,0,0,1-.032-.783,2.487,2.487,0,0,0,.114-.779,1.78,1.78,0,0,1,.576-1.472.85.85,0,0,0,.272-.735c-.015-.273-.011-.548-.009-.822,0-.175,0-.35,0-.524a2.242,2.242,0,0,1,.371-1.359.527.527,0,0,0,.081-.519,1.818,1.818,0,0,1-.064-.321l-.017-.116a.978.978,0,0,1,.53-1.172.59.59,0,0,0,.217-.217,5.349,5.349,0,0,0,.654-2.649,4.37,4.37,0,0,1-.008-.519c0-.107.005-.213,0-.32a1.193,1.193,0,0,1,.824-1.207l.411-.162v-.292c0-.336,0-.667,0-1a1.067,1.067,0,0,0-.292-.772l-.143-.179a1.205,1.205,0,0,0-.2-.315l-.18-.22a.971.971,0,0,1-.082-.253,1.591,1.591,0,0,0-.43-.848l-.037-.056a2.972,2.972,0,0,0-.8-.914l-.058-.051c-.261-.23-.52-.465-.764-.714l-.042-.044-.016-.059a.5.5,0,0,1-.008-.266c.057-.212-.026-.33-.2-.558l-.149-.2a1.771,1.771,0,0,0-.2-.293,2.218,2.218,0,0,1-.385-1.189,1.429,1.429,0,0,0-.437-1.067l-.051-.073a1.607,1.607,0,0,0-.9-.83,2.36,2.36,0,0,1-.668-.427,5.343,5.343,0,0,1-.482-.53l-.093-.14a2.687,2.687,0,0,1-.176-.293c-.167-.344-.475-1.01-.755-1.512l-.018-.032" transform="translate(-954.791 -539.149)" fill="#e50019"/>
      </g>
    </g>
    <g id="Group_6" data-name="Group 6" transform="translate(974.74 529.618)">
      <g id="Group_5" data-name="Group 5" transform="translate(0 0)" clip-path="url(#clip-path-3)">
        <path id="Path_9" data-name="Path 9" d="M974.74,529.618v73.292h73.291V529.618Z" transform="translate(-974.74 -529.618)" fill="none" stroke="#e71a18" stroke-width="1"/>
      </g>
      <path id="Path_11" data-name="Path 11" d="M975.533,529.618s-.793,0-.793,2.07V600.84s0,2.069.793,2.069h71.7s.793,0,.793-2.069V531.688s0-2.07-.793-2.07Z" transform="translate(-974.74 -529.618)" fill="none" stroke="#e71a18" stroke-miterlimit="10" stroke-width="1"/>
    </g>
    <path id="Path_12" data-name="Path 12" d="M1149.362,654.942a.648.648,0,0,1,.676-.621h2.462l.338-.335v-.717H1149.7a1.466,1.466,0,0,0-1.594,1.482v3.728a1.466,1.466,0,0,0,1.594,1.482h3.379V656.28h-1.255v2.629h-1.787a.647.647,0,0,1-.676-.621v-3.346Zm7.834.048h-.917a1.4,1.4,0,0,0-1.11.669h-.1l-.144-.574h-.821v4.875h1.207v-3.441a.916.916,0,0,1,.773-.478h1.11V654.99Zm4.749,4.971v-3.585a1.317,1.317,0,0,0-1.4-1.29h-2.511v1h2.172a.48.48,0,0,1,.531.525v.335H1159a1.318,1.318,0,0,0-1.4,1.291v.526a1.317,1.317,0,0,0,1.4,1.29h.772a1.4,1.4,0,0,0,1.11-.669h.1l.145.574Zm-1.978-.908h-.676a.453.453,0,0,1-.482-.478v-.143a.454.454,0,0,1,.482-.478h1.448v.574a.924.924,0,0,1-.772.526Zm-1.5-6.022v1.2h1.062v-1.2Zm1.931,0v1.2h1.062v-1.2Zm3.667,3.537a.469.469,0,0,1,.531-.478h1.932l.289-.287v-.717h-2.559a1.316,1.316,0,0,0-1.4,1.29v2.294a1.317,1.317,0,0,0,1.4,1.291h2.559v-1H1164.6a.468.468,0,0,1-.531-.478v-1.911Zm4.8,3.394v-3.872h1.5a.469.469,0,0,1,.531.478v3.394h1.206v-3.585a1.317,1.317,0,0,0-1.4-1.29h-1.834v-1.816h-1.207v6.692Zm8.5-3.681a1.317,1.317,0,0,0-1.4-1.29h-1.545a1.317,1.317,0,0,0-1.4,1.29v2.39a1.317,1.317,0,0,0,1.4,1.291h2.752v-1h-2.414a.468.468,0,0,1-.531-.478V658h3.137V656.28Zm-3.137.191a.468.468,0,0,1,.531-.478h.869a.469.469,0,0,1,.531.478V657h-1.93v-.526Zm5.259,3.489v-3.441a.924.924,0,0,1,.772-.526h.725a.469.469,0,0,1,.531.478v3.489h1.206V656.28a1.316,1.316,0,0,0-1.4-1.29h-.868a1.4,1.4,0,0,0-1.111.669h-.1l-.144-.574h-.821v4.875Zm8.689-.621h-.049l-1.689-6.07h-.434v.191l1.882,6.5h.531l1.69-5.067h.048l1.69,5.067h.531l1.883-6.5v-.191h-.435l-1.689,6.07h-.049l-1.689-5.019h-.531l-1.689,5.019Zm8.994.717a1.372,1.372,0,0,0,1.208-.812h.048l.1.717h.289v-3.537a1.326,1.326,0,0,0-1.4-1.338h-2.124v.382h2.124a.908.908,0,0,1,.966.956v.717h-2.124a1.325,1.325,0,0,0-1.4,1.338v.239a1.326,1.326,0,0,0,1.4,1.338Zm0-.382h-.917a.908.908,0,0,1-.965-.956v-.239a.908.908,0,0,1,.965-.956h2.124v1.1s-.338,1.051-1.208,1.051Zm3.064-6.4v5.353a1.326,1.326,0,0,0,1.4,1.338h.1v-.383h-.1a.908.908,0,0,1-.965-.956v-5.353Zm2.5,0v5.353a1.326,1.326,0,0,0,1.4,1.338h.1v-.383h-.1a.907.907,0,0,1-.965-.956v-5.353Zm3.05,1.816h-.435v4.875h.435v-4.875Zm0-1.816h-.435v1.1h.435v-1.1Zm4.974,5.4c0-.717-.338-1.032-1.062-1.2l-1.5-.334c-.482-.105-.724-.335-.724-.765a.834.834,0,0,1,.917-.908h2.173l.1-.1v-.287H1208.4a1.249,1.249,0,0,0-1.352,1.29c0,.669.338.985,1.062,1.147l1.5.334a.824.824,0,0,1,.724.813.833.833,0,0,1-.917.908H1207v.383h2.414a1.249,1.249,0,0,0,1.351-1.291Zm4.527-2.007h-3.716v.382h3.716v-.382Zm4.276,1.338v.334a1.161,1.161,0,0,1-1.255,1.243h-2.8v.383h2.8a1.577,1.577,0,0,0,1.689-1.625V658a1.374,1.374,0,0,0-1.158-1.434l-1.98-.43a1.011,1.011,0,0,1-.821-1.051v-.191a1.161,1.161,0,0,1,1.255-1.243h2.462l.1-.1v-.287H1217.3a1.577,1.577,0,0,0-1.689,1.625v.191a1.374,1.374,0,0,0,1.158,1.434l1.979.429a1.049,1.049,0,0,1,.821,1.052Zm5.324,1.577h-2.221a.907.907,0,0,1-.966-.956v-2.2a.907.907,0,0,1,.966-.956h2.124l.1-.1v-.287h-2.221a1.326,1.326,0,0,0-1.4,1.338v2.2a1.326,1.326,0,0,0,1.4,1.338h2.221v-.383Zm1.586.383v-4.493h2.172a.908.908,0,0,1,.966.956v3.537h.434v-3.537a1.326,1.326,0,0,0-1.4-1.338h-2.172v-1.816h-.434v6.692Zm7.822-3.681,1.255,3.681h.483l1.4-4.684v-.191H1237l-1.206,4.3h-.049l-1.207-3.633h-.531l-1.206,3.633h-.048l-1.207-4.3h-.435v.191l1.4,4.684h.482l1.255-3.681Zm8.083.048a1.326,1.326,0,0,0-1.4-1.338h-1.109a1.327,1.327,0,0,0-1.4,1.338v2.294a1.327,1.327,0,0,0,1.4,1.338h2.365v-.383h-2.365a.908.908,0,0,1-.966-.956v-.86h3.476v-1.434Zm-3.476,0a.908.908,0,0,1,.966-.956h1.109a.907.907,0,0,1,.966.956v1.052h-3.041v-1.052Zm5.276-1.243h-.434v4.875h.434v-4.875Zm0-1.816h-.434v1.1h.434v-1.1Zm4.975,6.309h-3.234v-.048l3.234-4.063v-.382h-3.717v.287l.1.1h3.041v.047l-3.235,4.063v.383h3.814v-.383Z" transform="translate(-91.642 -65.235)" fill="#e50019"/>
    <path id="Path_13" data-name="Path 13" d="M1152.139,630.458l2.186-5.149h.048l.777,6.121h.437v-.194l-.875-6.606h-.583l-2.234,5.294h-.048l-2.235-5.294h-.583l-.873,6.606v.194h.437l.777-6.121h.049l2.186,5.149Zm6.716,1.068a1.382,1.382,0,0,0,1.214-.826h.049l.1.729h.291v-3.594a1.34,1.34,0,0,0-1.408-1.361h-2.138v.389h2.138a.918.918,0,0,1,.971.971v.728h-2.137a1.34,1.34,0,0,0-1.408,1.36v.243a1.339,1.339,0,0,0,1.408,1.359Zm0-.388h-.923a.918.918,0,0,1-.972-.971v-.243a.918.918,0,0,1,.972-.972h2.137v1.117s-.34,1.069-1.214,1.069Zm2.438-4.274h.826v3.206a1.341,1.341,0,0,0,1.409,1.36h.874v-.389h-.874a.918.918,0,0,1-.972-.971v-3.206h1.6v-.389h-1.6v-1.506h-.243l-.194,1.506h-.826v.389Zm3.67,0h.826v3.206a1.34,1.34,0,0,0,1.409,1.36h.875v-.389h-.875a.918.918,0,0,1-.971-.971v-3.206h1.6v-.389h-1.6v-1.506h-.243l-.194,1.506h-.826v.389Zm7.85.874a1.34,1.34,0,0,0-1.409-1.36h-1.118a1.34,1.34,0,0,0-1.408,1.36v2.332a1.341,1.341,0,0,0,1.408,1.36h2.381v-.389h-2.381a.918.918,0,0,1-.971-.971V629.2h3.5v-1.458Zm-3.5,0a.918.918,0,0,1,.971-.971h1.118a.918.918,0,0,1,.971.971v1.069h-3.06v-1.069Zm7.24-1.36h-.923a1.382,1.382,0,0,0-1.214.826h-.049l-.1-.729h-.292v4.955h.437v-3.594s.34-1.02,1.214-1.02h.923v-.437Zm1.314,5.052v-4.566h2.186a.917.917,0,0,1,.971.971v3.594h.437v-3.594a1.34,1.34,0,0,0-1.408-1.361h-2.186V624.63h-.437v6.8Zm8.851-3.692a1.34,1.34,0,0,0-1.409-1.36h-1.263a1.34,1.34,0,0,0-1.409,1.36v2.429a1.34,1.34,0,0,0,1.409,1.359h1.263a1.34,1.34,0,0,0,1.409-1.359v-2.429Zm-.437,0v2.429a.918.918,0,0,1-.972.971h-1.263a.917.917,0,0,1-.971-.971v-2.429a.917.917,0,0,1,.971-.971h1.263a.918.918,0,0,1,.972.971Zm4.194-1.36h-.923a1.381,1.381,0,0,0-1.214.826h-.049l-.1-.729h-.291v4.955h.437v-3.594s.339-1.02,1.214-1.02h.923v-.437Zm1.313,5.052v-3.594s.34-1.069,1.214-1.069h.972a.918.918,0,0,1,.971.971v3.692h.437v-3.692a1.34,1.34,0,0,0-1.408-1.36h-.972a1.383,1.383,0,0,0-1.214.826h-.048l-.1-.729h-.292v4.955Zm8-.535h-.048l-2.137-6.265h-.437v.194l2.331,6.606h.535l2.331-6.606v-.194h-.437l-2.137,6.265Zm5.182.631a1.381,1.381,0,0,0,1.214-.826h.049l.1.729h.291v-3.594a1.34,1.34,0,0,0-1.408-1.361h-2.137v.389h2.137a.918.918,0,0,1,.971.971v.728h-2.137a1.341,1.341,0,0,0-1.409,1.36v.243a1.34,1.34,0,0,0,1.409,1.359Zm0-.388h-.923a.917.917,0,0,1-.971-.971v-.243a.918.918,0,0,1,.971-.972h2.137v1.117s-.34,1.069-1.214,1.069Zm2.876-6.508v5.44a1.34,1.34,0,0,0,1.409,1.36h.1v-.389h-.1a.918.918,0,0,1-.971-.971v-5.44Zm2.307,0v5.44a1.341,1.341,0,0,0,1.409,1.36h.1v-.389h-.1a.918.918,0,0,1-.971-.971v-5.44Zm6.193,3.108a1.34,1.34,0,0,0-1.409-1.36h-1.117a1.341,1.341,0,0,0-1.409,1.36v2.332a1.341,1.341,0,0,0,1.409,1.36h2.38v-.389h-2.38a.918.918,0,0,1-.972-.971V629.2h3.5v-1.458Zm-3.5,0a.918.918,0,0,1,.972-.971h1.117a.917.917,0,0,1,.971.971v1.069h-3.06v-1.069Zm8.53-1.068v-.195h-.438l-1.6,4.469h-.049l-1.749-4.469h-.437v.195l1.992,4.809c-.194.728-.68,1.214-1.214,1.214h-.244v.388h.244c.776,0,1.2-.436,1.651-1.6l1.846-4.809Zm1.972-2.04v6.8h.438v-3.3h3.789v3.3h.437v-6.8h-.437v3.108h-3.789V624.63Zm10.072,3.108a1.34,1.34,0,0,0-1.409-1.36h-1.263a1.341,1.341,0,0,0-1.409,1.36v2.429a1.341,1.341,0,0,0,1.409,1.359h1.263a1.34,1.34,0,0,0,1.409-1.359v-2.429Zm-.437,0v2.429a.918.918,0,0,1-.972.971h-1.263a.918.918,0,0,1-.972-.971v-2.429a.918.918,0,0,1,.972-.971h1.263a.918.918,0,0,1,.972.971Zm1.209-.874h.826v3.206a1.341,1.341,0,0,0,1.409,1.36h.874v-.389h-.874a.918.918,0,0,1-.972-.971v-3.206h1.6v-.389h-1.6v-1.506h-.243l-.194,1.506h-.826v.389Zm7.85.874a1.341,1.341,0,0,0-1.409-1.36h-1.117a1.34,1.34,0,0,0-1.409,1.36v2.332a1.34,1.34,0,0,0,1.409,1.36h2.38v-.389h-2.38a.918.918,0,0,1-.971-.971V629.2h3.5v-1.458Zm-3.5,0a.918.918,0,0,1,.971-.971h1.117a.917.917,0,0,1,.971.971v1.069h-3.06v-1.069Zm4.666-3.108v5.44a1.34,1.34,0,0,0,1.409,1.36h.1v-.389h-.1a.918.918,0,0,1-.972-.971v-5.44Zm6.022,5.489c0-.729-.34-1.049-1.068-1.215l-1.505-.34c-.487-.107-.729-.339-.729-.777a.843.843,0,0,1,.923-.922h2.186l.1-.1v-.292h-2.283a1.263,1.263,0,0,0-1.36,1.311c0,.68.34,1,1.069,1.166l1.505.34a.881.881,0,0,1-.194,1.749h-2.429v.389h2.429a1.262,1.262,0,0,0,1.36-1.311Z" transform="translate(-91.668 -50.223)" fill="#1a1818"/>
    <line id="Line_1" data-name="Line 1" x2="101.06" transform="translate(1056.445 585.003)" fill="none" stroke="#e50019" stroke-width="0.769"/>
    <path id="Path_14" data-name="Path 14" d="M1307.141,586.8l1.291,1.55.808-.571-1.13-1.713,1.856-.652-.242-.979-1.938.408-.162-2.039h-.969l-.161,2.039-1.938-.408-.242.979,1.858.652-1.13,1.713.807.571,1.292-1.55Zm6.783,0,1.292,1.55.808-.571-1.131-1.713,1.858-.652-.243-.979-1.937.408-.162-2.039h-.969l-.162,2.039-1.938-.408-.242.979,1.857.652-1.13,1.713.807.571,1.292-1.55Zm6.782,0,1.292,1.55.807-.571-1.131-1.713,1.858-.652-.242-.979-1.939.408-.161-2.039h-.97l-.161,2.039-1.938-.408-.242.979,1.858.652-1.131,1.713.807.571,1.292-1.55Z" transform="translate(-174.212 -28.115)" fill="#e50019"/>
    <path id="Path_15" data-name="Path 15" d="M1148.088,582.531v11.419h2.12v-4.894h4.241v4.894h2.121V582.531h-2.121v4.731h-4.241v-4.731Zm17.373,11.419v-6.117a2.235,2.235,0,0,0-2.366-2.2h-4.241v1.713h3.671a.816.816,0,0,1,.9.9v.571h-2.937a2.235,2.235,0,0,0-2.365,2.2v.9a2.235,2.235,0,0,0,2.365,2.2h1.306a2.356,2.356,0,0,0,1.875-1.142h.163l.245.979Zm-3.344-1.55h-1.142a.771.771,0,0,1-.816-.816v-.245a.771.771,0,0,1,.816-.815h2.447v.979a1.564,1.564,0,0,1-1.305.9Zm7.178,1.55v-5.873a1.562,1.562,0,0,1,1.3-.9h1.224a.8.8,0,0,1,.9.815v5.954h2.039v-6.281a2.234,2.234,0,0,0-2.365-2.2h-1.469a2.359,2.359,0,0,0-1.876,1.142h-.163l-.244-.979h-1.387v8.319Zm9.3,0v-5.873a1.564,1.564,0,0,1,1.306-.9h1.223a.8.8,0,0,1,.9.815v5.954h2.039v-6.281a2.234,2.234,0,0,0-2.365-2.2h-1.468a2.359,2.359,0,0,0-1.876,1.142h-.163l-.244-.979h-1.387v8.319Zm9.3-8.319h-2.038v8.319h2.038V585.63Zm0-3.344h-2.038v2.284h2.038v-2.284Zm7.422,3.426.979-.9V584h-1.713l-.9,1.468h-1.875a2.235,2.235,0,0,0-2.366,2.2v.9a1.9,1.9,0,0,0,.734,1.55v.163a.739.739,0,0,0-.408.669v.228a.7.7,0,0,0,.408.652v.163a2.26,2.26,0,0,0-1.305,1.958v.489a2.514,2.514,0,0,0,2.529,2.365h3.262a2.513,2.513,0,0,0,2.529-2.365v-.489a2.514,2.514,0,0,0-2.529-2.365h-2.806a.333.333,0,0,1-.293-.326v-.163a.294.294,0,0,1,.277-.326h2.414a2.234,2.234,0,0,0,2.365-2.2v-.9a1.922,1.922,0,0,0-1.3-1.794v-.163Zm-.163,8.483a.816.816,0,0,1-.9.9h-2.446a.9.9,0,1,1,0-1.794h2.446a.816.816,0,0,1,.9.9Zm-.571-6.118v.081a.816.816,0,0,1-.9.9h-1.3a.817.817,0,0,1-.9-.9v-.081a.816.816,0,0,1,.9-.9h1.3a.816.816,0,0,1,.9.9Zm10.522,5.873v-6.117a2.235,2.235,0,0,0-2.366-2.2h-4.241v1.713h3.67a.816.816,0,0,1,.9.9v.571h-2.936a2.235,2.235,0,0,0-2.366,2.2v.9a2.235,2.235,0,0,0,2.366,2.2h1.305a2.357,2.357,0,0,0,1.875-1.142h.164l.244.979Zm-3.345-1.55h-1.141a.77.77,0,0,1-.815-.816v-.245a.77.77,0,0,1,.815-.815h2.446v.979a1.563,1.563,0,0,1-1.3.9Zm5.3-9.869v9.216a2.225,2.225,0,0,0,2.366,2.2h1.06v-1.713h-.49a.8.8,0,0,1-.9-.815v-8.89Zm4.4,14.192h2.039v-2.773h3.1a2.235,2.235,0,0,0,2.366-2.2v-4.078a2.235,2.235,0,0,0-2.366-2.2h-1.468a2.357,2.357,0,0,0-1.876,1.142h-.163l-.246-.979h-1.386v11.092Zm2.039-4.486v-4.16a1.564,1.564,0,0,1,1.305-.9h1.223a.8.8,0,0,1,.9.815v3.426a.8.8,0,0,1-.9.815Z" transform="translate(-91.631 -27.84)" fill="#1a1818"/>
    <path id="Path_16" data-name="Path 16" d="M1351.64,586.66a.417.417,0,0,1-.469.474h-2.662v1.107h2.923a1.436,1.436,0,0,0,1.514-1.424v-.264a1.367,1.367,0,0,0-1.148-1.371l-1.514-.264c-.313-.053-.417-.221-.417-.527a.479.479,0,0,1,.523-.421h2.035l.313-.317v-.791h-2.663a1.436,1.436,0,0,0-1.513,1.424v.211a1.469,1.469,0,0,0,1.2,1.424l1.462.263a.453.453,0,0,1,.417.475Z" transform="translate(-197.573 -28.146)" fill="#e50019"/>
    <text id="Aktiv_Hotel_Spa" data-name="Aktiv Hotel &amp; Spa" transform="translate(1055.974 547.294)" fill="#1a1818" font-size="14" font-family="TTSupermolot-Bold, TT Supermolot" font-weight="700"><tspan x="0" y="0">Aktiv Hotel &amp; Spa</tspan></text>
  </g>
</svg>
