<svg xmlns="http://www.w3.org/2000/svg" xml:space="preserve" viewBox="0 0 70 70"><path d="M4.4 38.1c2.2 0 4.3-.5 6.1-1.4 1.8-.9 3.3-2.1 4.4-3.7 1.1-1.6 1.6-3.3 1.6-5.2 0-2.4-.6-4.2-1.8-5.3-1.2-1.1-2.9-1.6-5.1-1.6-1.1 0-2.2.1-3.5.4-1.3.3-2.3.6-3.2 1l-1.6-1.1L3.7 3.4h15l.5-.9h3.4l-1 6.1H8.2l-2 10.1c.9-.5 2.1-.9 3.4-1.3 1.3-.4 2.7-.6 4.2-.6 3.3 0 5.8.9 7.6 2.6 1.8 1.7 2.7 4.2 2.7 7.3 0 2.8-.8 5.3-2.5 7.6-1.6 2.3-3.9 4-6.8 5.3-2.9 1.3-6.2 1.9-9.8 1.9-1.2 0-2.4-.1-3.4-.3V38c1.2.1 2.2.1 2.8.1zM33 26.5c-1.3-.9-2.3-2-2.9-3.5-.7-1.5-1-3.1-1-4.9 0-2 .4-3.8 1.2-5.3.8-1.5 1.9-2.7 3.4-3.5 1.4-.8 3-1.2 4.7-1.2 3 0 5.1.9 6.5 2.7 1.4 1.8 2.1 4.1 2.1 7.1 0 2-.4 3.8-1.3 5.3-.8 1.5-2 2.6-3.4 3.4-1.4.8-3 1.2-4.7 1.2-1.7-.1-3.3-.5-4.6-1.3zm7.8-3.4c.6-1.2.9-2.9.9-5.1 0-2.1-.3-3.8-.8-5.1-.6-1.3-1.5-2-2.7-2-1.3 0-2.2.6-2.8 1.8-.6 1.2-.9 2.9-.9 5.1 0 2 .3 3.6.9 5 .6 1.4 1.5 2.1 2.7 2.1 1.2.1 2.2-.5 2.7-1.8zM54 7.8h4.3L43.6 42.2h-4.2L54 7.8zm.7 32.4c-1.3-.9-2.3-2-3-3.5-.7-1.5-1-3.1-1-4.8 0-2 .4-3.8 1.2-5.3.8-1.5 2-2.7 3.4-3.5 1.4-.8 3-1.2 4.8-1.2 2.9 0 5.1.9 6.5 2.7 1.4 1.8 2.1 4.1 2.1 7.1 0 2-.4 3.8-1.3 5.3-.8 1.5-2 2.6-3.4 3.4-1.4.8-3 1.2-4.7 1.2-1.8-.1-3.3-.5-4.6-1.4zm7.7-3.3c.6-1.2.9-2.9.9-5.1 0-2-.3-3.7-.8-5.1-.6-1.3-1.5-2-2.7-2-1.3 0-2.2.6-2.8 1.8-.6 1.2-.9 2.9-.9 5.1 0 2 .3 3.6.9 5 .6 1.4 1.5 2.1 2.7 2.1 1.2 0 2.1-.6 2.7-1.8zM2.1 56.3l.8-1.9c.9.7 2.3 1.1 3.5 1.1 1.5 0 2.1-.5 2.1-1.2 0-2-6.3-.6-6.3-4.6 0-1.8 1.5-3.3 4.5-3.3 1.4 0 2.7.3 3.7 1l-.8 1.9c-1-.6-2-.8-3-.8-1.5 0-2 .6-2 1.2 0 2 6.3.6 6.3 4.6 0 1.8-1.5 3.3-4.6 3.3-1.5-.1-3.3-.6-4.2-1.3zm11.3-4.4c0-3.2 2.5-5.6 5.9-5.6 3.4 0 5.9 2.4 5.9 5.6 0 3.2-2.5 5.6-5.9 5.6-3.5 0-5.9-2.4-5.9-5.6zm9.2 0c0-2-1.4-3.4-3.4-3.4s-3.4 1.4-3.4 3.4 1.4 3.4 3.4 3.4 3.4-1.3 3.4-3.4zm5.7-5.3h2.5v8.7h5.4v2h-7.9V46.6zM46.1 55h-5l-1 2.3h-2.6l4.8-10.8h2.5l4.8 10.8H47l-.9-2.3zm-.8-1.9L43.6 49l-1.7 4.1h3.4zm13.6 4.2-2.1-3h-2.3v3H52V46.6h4.7c2.9 0 4.7 1.5 4.7 3.9 0 1.6-.8 2.8-2.2 3.4l2.4 3.5h-2.7zm-2.3-8.7h-2v3.8h2c1.5 0 2.3-.7 2.3-1.9-.1-1.2-.8-1.9-2.3-1.9zm7.7 2.3h4.3v1.9h-4.3v-1.9zM6.8 67.5l-1.3-1.9H4.1v1.9H2.5v-6.8h2.9c1.8 0 2.9.9 2.9 2.5 0 1-.5 1.8-1.4 2.1l1.5 2.2H6.8zm-1.5-5.6H4.1v2.4h1.3c1 0 1.4-.4 1.4-1.2 0-.7-.5-1.2-1.5-1.2zm10.4 4.3v1.3h-5.3v-6.8h5.1V62H12v1.5h3.2v1.2H12v1.6h3.7zm2.1-5.5h3.1c2.2 0 3.7 1.3 3.7 3.4 0 2.1-1.5 3.4-3.7 3.4h-3.1v-6.8zm3 5.5c1.3 0 2.2-.8 2.2-2.1s-.9-2.1-2.2-2.1h-1.4v4.2h1.4zm5.7-1.7v-3.8h1.6v3.7c0 1.3.6 1.8 1.5 1.8 1 0 1.5-.5 1.5-1.8v-3.7h1.6v3.8c0 2-1.1 3.1-3.1 3.1s-3.1-1.1-3.1-3.1zm11 .3-.9 1v1.7H35v-6.8h1.6v3.2l3-3.2h1.7l-2.8 3 3 3.8h-1.8l-2.2-2.7zm6.5-2.9h-2.2v-1.3h5.9v1.3h-2.2v5.5H44v-5.5zm5.4-1.2H51v6.8h-1.6v-6.8zm3.6 3.4c0-2 1.6-3.5 3.7-3.5s3.7 1.5 3.7 3.5-1.6 3.5-3.7 3.5-3.7-1.5-3.7-3.5zm5.8 0c0-1.3-.9-2.2-2.1-2.2-1.2 0-2.1.9-2.1 2.2 0 1.3.9 2.2 2.1 2.2 1.2-.1 2.1-.9 2.1-2.2zm9.9-3.4v6.8h-1.3L64 63.3v4.1h-1.6v-6.8h1.3l3.4 4.1v-4.1h1.6z"/></svg>