<svg xmlns="http://www.w3.org/2000/svg" width="512" height="512" style="enable-background:new 0 0 512 512" xml:space="preserve"><path d="M276.5 481.1H93.4c-26.2 0-47.4-21.2-47.4-47.4V233c0-7.1-5.7-12-12-12-6.4 0-12 5.7-12 12v200.7c0 39.6 32.5 71.4 71.4 71.4h183.1c7.1 0 12-5.7 12-12s-5.6-12-12-12zM486.4 99.4c-1.4-6.4-8.5-10.6-14.8-9.2-6.4 1.4-10.6 8.5-9.2 14.8 1.4 7.1 2.8 14.8 2.8 22.6 0 29.7-13.4 56.5-36.8 74.9-17 12.7-36.8 19.8-58 19.8-52.3 0-94.7-42.4-94.7-94.7 0-5.7.7-10.6 1.4-16.3 1.4-8.5 4.2-17 7.8-25.4 15.5-32.5 49.5-53.7 85.5-53.7 24 0 46.6 9.2 64.3 24.7 4.9 4.9 12.7 4.2 17.7-.7 4.9-4.9 4.2-12.7-.7-17.7C429.8 18 400.8 6.7 371.1 6.7 328 6.7 288.4 30 267.2 66.8H93.4C53.9 66.9 22 99.4 22 138.3v35.3c0 7.1 5.7 12 12 12 6.4 0 12-5.7 12-12v-35.3c0-26.2 21.2-47.4 47.4-47.4h163.3v.7c-.7 2.8-1.4 4.9-2.1 7.8v1.4c-.7 2.1-.7 4.2-1.4 6.4v2.8c0 2.1-.7 3.5-.7 5.7v9.9c0 65.7 53.7 119.5 119.5 119.5 2.8 0 5.7 0 9.2-.7h2.1c2.1 0 4.9-.7 7.1-.7h1.4c2.8-.7 5.7-1.4 8.5-1.4.7 0 1.4-.7 2.1-.7l6.4-2.1c.7 0 1.4-.7 2.1-.7 2.8-.7 5.7-2.1 7.8-2.8.7 0 .7-.7 1.4-.7l4.2-2.1v200.7c0 26.2-21.2 47.4-47.4 47.4h-47.4c-7.1 0-12 5.7-12 12 0 7.1 5.7 12 12 12h47.4c39.6 0 71.4-32.5 71.4-71.4V218.2c26.9-22.6 41.7-55.8 41.7-90.5 0-9.2-1.5-19.1-3.6-28.3z"/><path d="M316.1 367.3c-1.4-2.8-2.8-5.7-5.7-7.8-2.1-2.1-5.7-3.5-8.5-4.9-3.5-.7-8.5-1.4-14.1-1.4h-21.2c-3.5 0-6.4.7-7.8 2.1-1.4 1.4-2.8 4.2-2.8 7.8v63.6c0 3.5.7 5.7 2.1 7.8 1.4 1.4 3.5 2.8 5.7 2.8 2.1 0 4.2-.7 5.7-2.8 1.4-1.4 2.1-4.2 2.1-7.8v-23.3h14.8c9.9 0 17.7-2.1 22.6-6.4 4.9-4.2 7.8-10.6 7.8-19.1 1.4-3.5.7-7-.7-10.6zm-17 18.4c-1.4 2.1-3.5 3.5-5.7 4.2-2.8.7-5.7 1.4-9.9 1.4h-11.3v-24.7h11.3c7.1 0 12 1.4 14.8 3.5 2.1 2.1 2.8 4.9 2.8 8.5.1 2.9-.6 5-2 7.1zM371.9 183.6c4.2 0 7.1-3.5 7.1-7.1V81.8c0-2.8-2.1-5.7-4.2-7.1-2.8-1.4-5.7-.7-7.8 1.4l-16.3 16.3c-2.8 2.8-2.8 7.8 0 10.6s7.8 2.8 10.6 0l3.5-3.5v76.3c-.7 4.2 2.9 7.8 7.1 7.8zM194.5 433.8c1.4-1.4 2.1-4.2 2.1-7.8v-23.3h14.8c9.9 0 17.7-2.1 22.6-6.4 4.9-4.2 7.8-10.6 7.8-19.1 0-4.2-.7-7.1-2.1-10.6-1.4-2.8-2.8-5.7-5.7-7.8-2.1-2.1-5.7-3.5-8.5-4.9-3.5-.7-8.5-1.4-14.1-1.4h-21.2c-3.5 0-6.4.7-7.8 2.1-1.4 1.4-2.8 4.2-2.8 7.8v64.3c0 3.5.7 5.7 2.1 7.8 1.4 1.4 3.5 2.8 5.7 2.8 3.6-.7 5-1.4 7.1-3.5zm2.1-67.9h11.3c7.1 0 12 1.4 14.8 3.5 2.1 2.1 2.8 4.9 2.8 8.5 0 2.8-.7 5.7-2.1 7.1-1.4 2.1-3.5 3.5-5.7 4.2-2.8.7-5.7 1.4-9.9 1.4h-11.3v-24.7zM105.4 434.5c1.4-1.4 2.1-4.2 4.2-8.5l4.2-10.6H147l4.2 9.9 2.1 4.2c.7 1.4 1.4 2.8 2.1 3.5l2.1 2.1c.7.7 2.1.7 3.5.7 2.1 0 4.2-.7 5.7-2.1 1.4-1.4 2.1-3.5 2.1-4.9 0-2.1-.7-4.9-2.8-8.5L145 368c-.7-2.8-2.1-4.9-2.8-6.4l-2.1-4.2c-.7-1.4-2.1-2.8-3.5-3.5-1.4-.7-3.5-1.4-5.7-1.4-2.1 0-4.2.7-5.7 1.4-1.4.7-2.8 2.1-3.5 3.5-.7 1.4-2.1 2.8-2.8 5.7-.7 2.8-1.4 4.2-2.1 5.7l-20.5 53c-.7 2.1-1.4 3.5-2.1 4.9-.7 1.4-.7 2.1-.7 3.5 0 2.1.7 3.5 2.1 4.9.7.7 2.8 1.4 4.9 1.4s4.2-.6 4.9-2zm24.1-65.1 12 33.9h-24l12-33.9z"/></svg>